<?xml version="1.0" encoding="UTF-8" standalone="no"?>
<!-- Generator: Adobe Illustrator 24.0.1, SVG Export Plug-In . SVG Version: 6.00 Build 0)  -->

<svg
   xmlns:dc="http://purl.org/dc/elements/1.1/"
   xmlns:cc="http://creativecommons.org/ns#"
   xmlns:rdf="http://www.w3.org/1999/02/22-rdf-syntax-ns#"
   xmlns:svg="http://www.w3.org/2000/svg"
   xmlns="http://www.w3.org/2000/svg"
   xmlns:sodipodi="http://sodipodi.sourceforge.net/DTD/sodipodi-0.dtd"
   xmlns:inkscape="http://www.inkscape.org/namespaces/inkscape"
   version="1.1"
   id="Layer_1"
   x="0px"
   y="0px"
   viewBox="0 0 1076.1881 680.8233"
   xml:space="preserve"
   sodipodi:docname="bao.svg"
   width="1076.1881"
   height="680.8233"
   inkscape:version="0.92.4 5da689c313, 2019-01-14"><metadata
   id="metadata901"><rdf:RDF><cc:Work
       rdf:about=""><dc:format>image/svg+xml</dc:format><dc:type
         rdf:resource="http://purl.org/dc/dcmitype/StillImage" /></cc:Work></rdf:RDF></metadata><defs
   id="defs899" /><sodipodi:namedview
   pagecolor="#ffffff"
   bordercolor="#666666"
   borderopacity="1"
   objecttolerance="10"
   gridtolerance="10"
   guidetolerance="10"
   inkscape:pageopacity="0"
   inkscape:pageshadow="2"
   inkscape:window-width="1920"
   inkscape:window-height="1016"
   id="namedview897"
   showgrid="false"
   inkscape:zoom="0.77054116"
   inkscape:cx="452.60386"
   inkscape:cy="350.26945"
   inkscape:window-x="0"
   inkscape:window-y="27"
   inkscape:window-maximized="1"
   inkscape:current-layer="Layer_1" />
<style
   type="text/css"
   id="style878">
	.st0{display:none;}
	.st1{display:inline;fill:#FFFFFF;}
	.st2{fill:#010101;}
</style>
<g
   id="layer101"
   class="st0"
   style="display:none"
   transform="translate(-57.811895,-35.033139)">
	<path
   class="st1"
   d="m 19,321.8 v -379 h 600 600 v 379 379 H 619 19 Z"
   id="path880"
   inkscape:connector-curvature="0"
   style="display:inline;fill:#ffffff" />
</g>
<g
   id="layer102"
   transform="translate(-57.811895,-35.033139)">
	<path
   class="st2"
   d="m 190.5,714.9 c -44.9,-1.7 -82.6,-4.1 -100,-6.5 -12.2,-1.7 -15.5,-3.5 -15.5,-8.5 0,-7.7 3.6,-8.6 25.2,-6 9,1.1 23.5,2.2 32.3,2.6 8.8,0.3 22.3,1 30,1.6 22.4,1.6 119.3,2.4 130.5,1 5.2,-0.6 13.6,-1.6 18.5,-2.2 27.4,-3.2 48.7,-9.9 64,-20.3 21.4,-14.6 36.5,-31.1 42.4,-46.6 0.8,-1.9 2.3,-5.5 3.5,-8 3.2,-6.8 3.6,-27.3 0.7,-39.3 -2.4,-10 -8.8,-23.7 -14.2,-30.2 -2.1,-2.5 -3.9,-4.9 -4.1,-5.3 -0.6,-1.6 -19.4,-17.6 -24.9,-21.2 -6,-4 -20.3,-11.4 -28.4,-14.8 -11,-4.6 -40.9,-13.4 -67,-19.7 -6,-1.5 -14.4,-3.5 -18.5,-4.5 -8.3,-2 -17.5,-3.9 -35,-7.1 -3,-0.5 -7.3,-1.4 -9.5,-2 -2.2,-0.6 -8.7,-1.6 -14.5,-2.4 -5.8,-0.7 -16.3,-2 -23.5,-3 -18.3,-2.4 -53.3,-1.7 -65,1.4 -5.6,1.5 -8.8,3 -10.9,5 l -2.9,2.9 1.7,64.4 c 0.9,35.3 2.2,74.9 2.9,87.8 2.1,41.6 1.9,43.6 -4.8,44 -5,0.3 -5.2,0.2 -7.4,-4.3 C 94.4,670.2 94,667.5 94,659.9 94,654.7 93.6,645.8 93,640 91.7,625.3 90.1,574 89,511 87.8,441.4 83.2,327.5 79.1,266.5 78.5,258.8 77.6,244.4 77,234.5 75.9,215 74.5,196.6 73,180 c -0.6,-5.8 -1.7,-19.5 -2.5,-30.5 -0.8,-11 -1.9,-24 -2.5,-29 -4,-36.3 -7.3,-60.6 -9.4,-70.2 -1.5,-6.7 -0.8,-12.9 1.6,-14.4 2.4,-1.6 6.4,-0.9 8.5,1.4 2.8,2.9 5.9,12.3 7.2,21.7 0.6,4.1 1.6,10.4 2.1,14 1.1,6.7 1.3,8.5 3,26 0.6,5.8 1.5,12.8 2,15.5 0.6,2.8 1.4,12 1.9,20.5 0.6,8.5 1.7,22.9 2.5,32 2.2,24 5.5,69.6 6.6,91 0.5,10.2 1.4,23.5 1.9,29.5 0.6,6.1 1.5,23.8 2.1,39.5 0.6,15.7 1.7,40.9 2.5,56 0.8,15.1 1.8,39.1 2.1,53.3 0.6,23 0.9,25.7 2.3,25.1 7.9,-3.2 31.3,-6.4 47.8,-6.4 11.4,0 22.4,0.9 43.8,3.7 19.5,2.5 23.6,3.1 31.5,4.8 4.1,0.9 10.9,2.2 15,3 15.8,3 27.1,5.4 27.9,5.9 0.5,0.4 6,1.7 12.3,3.1 6.2,1.4 13.6,3.1 16.3,3.9 2.8,0.8 11.1,3 18.5,5 14.5,3.8 34.6,10.5 39.5,13 1.7,0.9 3.5,1.6 4,1.6 1,0 15.7,7.6 22.3,11.5 10.3,6.1 28.5,22.1 35.5,31.3 5,6.5 11.6,18.2 14.7,26.1 3.2,8.3 5,20.3 5,34.6 0,15.6 -1.4,22.1 -7.4,35 -8.1,17.2 -18,29 -37.6,44.7 -12.2,9.8 -31.5,19.6 -46.8,23.8 -7.2,2 -25.8,5.3 -38.7,7 -23.3,2.9 -68.9,3.7 -118,1.9 z"
   id="path883"
   inkscape:connector-curvature="0"
   style="fill:#010101" />
	<path
   class="st2"
   d="M 960.6,714.9 C 930.5,711 899.2,697 877.2,677.6 823.7,630.4 814.9,555.2 856.5,499.8 c 37.2,-49.5 104.9,-71.9 167.7,-55.4 65,17.1 109.8,71.3 109.8,133.1 0,69.4 -55.5,127.5 -131.3,137.5 -9.2,1.2 -32.3,1.1 -42.1,-0.1 z M 994.5,700 c 54.3,-4.7 99.5,-36.9 117.1,-83.6 3.5,-9.3 5.4,-18 6.3,-29.3 4.2,-48.4 -23.3,-94.1 -70.4,-117.1 -14.9,-7.3 -24.6,-10.5 -40,-13.2 -16.7,-2.8 -42.9,-2.2 -58.6,1.5 -46.5,11 -83.5,42.8 -97.1,83.7 -4.6,13.6 -5.3,18.6 -5.2,36.5 0.1,15 0.4,18.2 2.7,26.8 13.7,51.4 61.8,89.5 119.6,94.7 12.5,1.1 12.5,1.1 25.6,0 z"
   id="path885"
   inkscape:connector-curvature="0"
   style="fill:#010101" />
	<path
   class="st2"
   d="m 1055.6,552.5 c -6.8,-3.6 -23.2,-16.2 -34.5,-26.6 -12.6,-11.6 -15.2,-15.5 -13.7,-21.3 0.8,-3.3 5.9,-6 9.4,-5.1 1.5,0.4 7.4,5.3 13.2,11 5.8,5.6 16.7,14.8 24.3,20.4 12.9,9.6 13.7,10.3 13.7,13.5 0,4.2 -4.2,9.6 -7.3,9.6 -1.2,0 -3.5,-0.7 -5.1,-1.5 z"
   id="path887"
   inkscape:connector-curvature="0"
   style="fill:#010101" />
	<path
   class="st2"
   d="m 900.3,550 c -3.4,-1.4 -4.8,-4.7 -2.9,-7.3 3.1,-4.6 6.4,-7.7 14.1,-13.3 4.4,-3.1 12,-9.2 16.8,-13.3 17,-14.6 20.2,-17 22.3,-17.1 2.8,0 7.4,5 7.4,8.2 0,7.1 -31.6,35.5 -45.8,41.3 -6.6,2.7 -8.4,2.9 -11.9,1.5 z"
   id="path889"
   inkscape:connector-curvature="0"
   style="fill:#010101" />
	<path
   class="st2"
   d="m 977.5,548.6 -3,-2.4 -0.3,-20.5 c -0.4,-19.7 -0.3,-20.6 1.7,-22.6 2.4,-2.4 6.2,-3.5 9.5,-2.7 3.9,1 5.1,7.5 5.1,28.4 0,18.1 0,18.4 -2.4,20.3 -3.1,2.6 -7,2.4 -10.6,-0.5 z"
   id="path891"
   inkscape:connector-curvature="0"
   style="fill:#010101" />
	<path
   class="st2"
   d="m 525.9,693.9 c -2.8,-2.8 -2.2,-9.5 1.3,-14.1 1.3,-1.8 2.9,-4.4 3.5,-5.8 0.5,-1.4 2.7,-4.5 4.7,-6.9 2,-2.4 4.2,-5.3 4.8,-6.5 0.6,-1.2 2,-3.1 3.1,-4.4 1.1,-1.2 3,-3.7 4.1,-5.6 1.2,-1.9 4.6,-6.9 7.6,-11.1 8.5,-12 11.2,-15.8 15.4,-22.2 2.2,-3.2 5.1,-7.1 6.4,-8.7 1.3,-1.6 3.7,-5.6 5.3,-8.9 1.7,-3.2 4.6,-8.1 6.4,-10.7 1.9,-2.7 4.1,-6.4 5,-8.2 0.8,-1.8 2.2,-4.4 3,-5.8 0.9,-1.4 5.2,-10.1 9.6,-19.5 4.4,-9.3 9.1,-19.2 10.4,-22 1.3,-2.7 3.4,-7.7 4.6,-11 1.2,-3.3 2.5,-6.4 2.9,-7 0.4,-0.5 2,-5 3.5,-10 5.1,-17 7.3,-22.6 9.6,-25.2 3.7,-3.9 5.7,-4.6 8.9,-3.3 3.5,1.4 4.6,4.5 5.4,15 1.6,19.3 10.9,59.8 18.6,80.5 6.2,16.8 9.2,23.7 16.1,38 13.2,27.1 23.3,42.9 35.6,55.3 4,3.9 7.9,7.2 8.7,7.2 1.8,0 6.4,5.4 7.2,8.6 0.8,3 -1.8,7.2 -5,8 -3.4,0.8 -12.3,-3.3 -17.4,-8 -9,-8.4 -21.3,-24.9 -32.1,-42.8 -1.2,-2.1 -2.6,-3.8 -2.9,-3.8 -7.3,0.2 -50.1,3.5 -66.2,5.1 -36.4,3.5 -33.1,3.5 -35.6,0.4 l -2.1,-2.7 -5.9,8.8 c -8.1,12 -11.9,17.5 -18.9,27.3 -9,12.5 -10.3,14.3 -13,18.4 -2.2,3.2 -3,3.7 -6.5,3.7 -2.7,0 -4.7,-0.7 -6.1,-2.1 z M 603,625.5 c 7.4,-0.9 24.1,-2.2 37,-3 27.4,-1.7 32,-2.2 32,-3.7 0,-0.6 -2.1,-5.6 -4.7,-11.2 -8.9,-19.4 -17,-44.5 -26.3,-81.5 -0.6,-2.4 -1.5,-4 -1.9,-3.5 -0.4,0.5 -2.9,6.1 -5.4,12.4 -9.9,24.8 -13.5,32.8 -18.4,41 -2.8,4.7 -6.1,10.5 -7.3,13 -1.3,2.4 -3,5.6 -4,7 -2.8,4 -17.3,25.9 -19.4,29.2 l -2,3.1 3.5,-0.6 c 1.9,-0.4 9.5,-1.3 16.9,-2.2 z"
   id="path893"
   inkscape:connector-curvature="0"
   style="fill:#010101" />
</g>
</svg>