<?xml version="1.0" encoding="utf-8" standalone="no"?>
<!DOCTYPE svg PUBLIC "-//W3C//DTD SVG 1.1//EN"
  "http://www.w3.org/Graphics/SVG/1.1/DTD/svg11.dtd">
<!-- Created with matplotlib (https://matplotlib.org/) -->
<svg height="720pt" version="1.1" viewBox="0 0 1440 720" width="1440pt" xmlns="http://www.w3.org/2000/svg" xmlns:xlink="http://www.w3.org/1999/xlink">
 <defs>
  <style type="text/css">
*{stroke-linecap:butt;stroke-linejoin:round;}
  </style>
 </defs>
 <g id="figure_1">
  <g id="patch_1">
   <path d="M 0 720 
L 1440 720 
L 1440 0 
L 0 0 
z
" style="fill:#ffffff;"/>
  </g>
  <g id="axes_1">
   <g id="patch_2">
    <path d="M 180 640.8 
L 1296 640.8 
L 1296 86.4 
L 180 86.4 
z
" style="fill:#eaeaf2;"/>
   </g>
   <g id="matplotlib.axis_1">
    <g id="xtick_1">
     <g id="text_1">
      <!-- 64 -->
      <defs>
       <path d="M 33.015625 40.375 
Q 26.375 40.375 22.484375 35.828125 
Q 18.609375 31.296875 18.609375 23.390625 
Q 18.609375 15.53125 22.484375 10.953125 
Q 26.375 6.390625 33.015625 6.390625 
Q 39.65625 6.390625 43.53125 10.953125 
Q 47.40625 15.53125 47.40625 23.390625 
Q 47.40625 31.296875 43.53125 35.828125 
Q 39.65625 40.375 33.015625 40.375 
z
M 52.59375 71.296875 
L 52.59375 62.3125 
Q 48.875 64.0625 45.09375 64.984375 
Q 41.3125 65.921875 37.59375 65.921875 
Q 27.828125 65.921875 22.671875 59.328125 
Q 17.53125 52.734375 16.796875 39.40625 
Q 19.671875 43.65625 24.015625 45.921875 
Q 28.375 48.1875 33.59375 48.1875 
Q 44.578125 48.1875 50.953125 41.515625 
Q 57.328125 34.859375 57.328125 23.390625 
Q 57.328125 12.15625 50.6875 5.359375 
Q 44.046875 -1.421875 33.015625 -1.421875 
Q 20.359375 -1.421875 13.671875 8.265625 
Q 6.984375 17.96875 6.984375 36.375 
Q 6.984375 53.65625 15.1875 63.9375 
Q 23.390625 74.21875 37.203125 74.21875 
Q 40.921875 74.21875 44.703125 73.484375 
Q 48.484375 72.75 52.59375 71.296875 
z
" id="DejaVuSans-54"/>
       <path d="M 37.796875 64.3125 
L 12.890625 25.390625 
L 37.796875 25.390625 
z
M 35.203125 72.90625 
L 47.609375 72.90625 
L 47.609375 25.390625 
L 58.015625 25.390625 
L 58.015625 17.1875 
L 47.609375 17.1875 
L 47.609375 0 
L 37.796875 0 
L 37.796875 17.1875 
L 4.890625 17.1875 
L 4.890625 26.703125 
z
" id="DejaVuSans-52"/>
      </defs>
      <g style="fill:#262626;" transform="translate(206.701875 665.837422)scale(0.165 -0.165)">
       <use xlink:href="#DejaVuSans-54"/>
       <use x="63.623047" xlink:href="#DejaVuSans-52"/>
      </g>
     </g>
    </g>
    <g id="xtick_2">
     <g id="text_2">
      <!-- 128 -->
      <defs>
       <path d="M 12.40625 8.296875 
L 28.515625 8.296875 
L 28.515625 63.921875 
L 10.984375 60.40625 
L 10.984375 69.390625 
L 28.421875 72.90625 
L 38.28125 72.90625 
L 38.28125 8.296875 
L 54.390625 8.296875 
L 54.390625 0 
L 12.40625 0 
z
" id="DejaVuSans-49"/>
       <path d="M 19.1875 8.296875 
L 53.609375 8.296875 
L 53.609375 0 
L 7.328125 0 
L 7.328125 8.296875 
Q 12.9375 14.109375 22.625 23.890625 
Q 32.328125 33.6875 34.8125 36.53125 
Q 39.546875 41.84375 41.421875 45.53125 
Q 43.3125 49.21875 43.3125 52.78125 
Q 43.3125 58.59375 39.234375 62.25 
Q 35.15625 65.921875 28.609375 65.921875 
Q 23.96875 65.921875 18.8125 64.3125 
Q 13.671875 62.703125 7.8125 59.421875 
L 7.8125 69.390625 
Q 13.765625 71.78125 18.9375 73 
Q 24.125 74.21875 28.421875 74.21875 
Q 39.75 74.21875 46.484375 68.546875 
Q 53.21875 62.890625 53.21875 53.421875 
Q 53.21875 48.921875 51.53125 44.890625 
Q 49.859375 40.875 45.40625 35.40625 
Q 44.1875 33.984375 37.640625 27.21875 
Q 31.109375 20.453125 19.1875 8.296875 
z
" id="DejaVuSans-50"/>
       <path d="M 31.78125 34.625 
Q 24.75 34.625 20.71875 30.859375 
Q 16.703125 27.09375 16.703125 20.515625 
Q 16.703125 13.921875 20.71875 10.15625 
Q 24.75 6.390625 31.78125 6.390625 
Q 38.8125 6.390625 42.859375 10.171875 
Q 46.921875 13.96875 46.921875 20.515625 
Q 46.921875 27.09375 42.890625 30.859375 
Q 38.875 34.625 31.78125 34.625 
z
M 21.921875 38.8125 
Q 15.578125 40.375 12.03125 44.71875 
Q 8.5 49.078125 8.5 55.328125 
Q 8.5 64.0625 14.71875 69.140625 
Q 20.953125 74.21875 31.78125 74.21875 
Q 42.671875 74.21875 48.875 69.140625 
Q 55.078125 64.0625 55.078125 55.328125 
Q 55.078125 49.078125 51.53125 44.71875 
Q 48 40.375 41.703125 38.8125 
Q 48.828125 37.15625 52.796875 32.3125 
Q 56.78125 27.484375 56.78125 20.515625 
Q 56.78125 9.90625 50.3125 4.234375 
Q 43.84375 -1.421875 31.78125 -1.421875 
Q 19.734375 -1.421875 13.25 4.234375 
Q 6.78125 9.90625 6.78125 20.515625 
Q 6.78125 27.484375 10.78125 32.3125 
Q 14.796875 37.15625 21.921875 38.8125 
z
M 18.3125 54.390625 
Q 18.3125 48.734375 21.84375 45.5625 
Q 25.390625 42.390625 31.78125 42.390625 
Q 38.140625 42.390625 41.71875 45.5625 
Q 45.3125 48.734375 45.3125 54.390625 
Q 45.3125 60.0625 41.71875 63.234375 
Q 38.140625 66.40625 31.78125 66.40625 
Q 25.390625 66.40625 21.84375 63.234375 
Q 18.3125 60.0625 18.3125 54.390625 
z
" id="DejaVuSans-56"/>
      </defs>
      <g style="fill:#262626;" transform="translate(275.852813 665.837422)scale(0.165 -0.165)">
       <use xlink:href="#DejaVuSans-49"/>
       <use x="63.623047" xlink:href="#DejaVuSans-50"/>
       <use x="127.246094" xlink:href="#DejaVuSans-56"/>
      </g>
     </g>
    </g>
    <g id="xtick_3">
     <g id="text_3">
      <!-- 256 -->
      <defs>
       <path d="M 10.796875 72.90625 
L 49.515625 72.90625 
L 49.515625 64.59375 
L 19.828125 64.59375 
L 19.828125 46.734375 
Q 21.96875 47.46875 24.109375 47.828125 
Q 26.265625 48.1875 28.421875 48.1875 
Q 40.625 48.1875 47.75 41.5 
Q 54.890625 34.8125 54.890625 23.390625 
Q 54.890625 11.625 47.5625 5.09375 
Q 40.234375 -1.421875 26.90625 -1.421875 
Q 22.3125 -1.421875 17.546875 -0.640625 
Q 12.796875 0.140625 7.71875 1.703125 
L 7.71875 11.625 
Q 12.109375 9.234375 16.796875 8.0625 
Q 21.484375 6.890625 26.703125 6.890625 
Q 35.15625 6.890625 40.078125 11.328125 
Q 45.015625 15.765625 45.015625 23.390625 
Q 45.015625 31 40.078125 35.4375 
Q 35.15625 39.890625 26.703125 39.890625 
Q 22.75 39.890625 18.8125 39.015625 
Q 14.890625 38.140625 10.796875 36.28125 
z
" id="DejaVuSans-53"/>
      </defs>
      <g style="fill:#262626;" transform="translate(350.252813 665.837422)scale(0.165 -0.165)">
       <use xlink:href="#DejaVuSans-50"/>
       <use x="63.623047" xlink:href="#DejaVuSans-53"/>
       <use x="127.246094" xlink:href="#DejaVuSans-54"/>
      </g>
     </g>
    </g>
    <g id="xtick_4">
     <g id="text_4">
      <!-- 512 -->
      <g style="fill:#262626;" transform="translate(424.652812 665.837422)scale(0.165 -0.165)">
       <use xlink:href="#DejaVuSans-53"/>
       <use x="63.623047" xlink:href="#DejaVuSans-49"/>
       <use x="127.246094" xlink:href="#DejaVuSans-50"/>
      </g>
     </g>
    </g>
    <g id="xtick_5">
     <g id="text_5">
      <!-- 1 KiB -->
      <defs>
       <path id="DejaVuSans-32"/>
       <path d="M 9.8125 72.90625 
L 19.671875 72.90625 
L 19.671875 42.09375 
L 52.390625 72.90625 
L 65.09375 72.90625 
L 28.90625 38.921875 
L 67.671875 0 
L 54.6875 0 
L 19.671875 35.109375 
L 19.671875 0 
L 9.8125 0 
z
" id="DejaVuSans-75"/>
       <path d="M 9.421875 54.6875 
L 18.40625 54.6875 
L 18.40625 0 
L 9.421875 0 
z
M 9.421875 75.984375 
L 18.40625 75.984375 
L 18.40625 64.59375 
L 9.421875 64.59375 
z
" id="DejaVuSans-105"/>
       <path d="M 19.671875 34.8125 
L 19.671875 8.109375 
L 35.5 8.109375 
Q 43.453125 8.109375 47.28125 11.40625 
Q 51.125 14.703125 51.125 21.484375 
Q 51.125 28.328125 47.28125 31.5625 
Q 43.453125 34.8125 35.5 34.8125 
z
M 19.671875 64.796875 
L 19.671875 42.828125 
L 34.28125 42.828125 
Q 41.5 42.828125 45.03125 45.53125 
Q 48.578125 48.25 48.578125 53.8125 
Q 48.578125 59.328125 45.03125 62.0625 
Q 41.5 64.796875 34.28125 64.796875 
z
M 9.8125 72.90625 
L 35.015625 72.90625 
Q 46.296875 72.90625 52.390625 68.21875 
Q 58.5 63.53125 58.5 54.890625 
Q 58.5 48.1875 55.375 44.234375 
Q 52.25 40.28125 46.1875 39.3125 
Q 53.46875 37.75 57.5 32.78125 
Q 61.53125 27.828125 61.53125 20.40625 
Q 61.53125 10.640625 54.890625 5.3125 
Q 48.25 0 35.984375 0 
L 9.8125 0 
z
" id="DejaVuSans-66"/>
      </defs>
      <g style="fill:#262626;" transform="translate(493.566562 665.837422)scale(0.165 -0.165)">
       <use xlink:href="#DejaVuSans-49"/>
       <use x="63.623047" xlink:href="#DejaVuSans-32"/>
       <use x="95.410156" xlink:href="#DejaVuSans-75"/>
       <use x="160.986328" xlink:href="#DejaVuSans-105"/>
       <use x="188.769531" xlink:href="#DejaVuSans-66"/>
      </g>
     </g>
    </g>
    <g id="xtick_6">
     <g id="text_6">
      <!-- 2 KiB -->
      <g style="fill:#262626;" transform="translate(567.966563 665.837422)scale(0.165 -0.165)">
       <use xlink:href="#DejaVuSans-50"/>
       <use x="63.623047" xlink:href="#DejaVuSans-32"/>
       <use x="95.410156" xlink:href="#DejaVuSans-75"/>
       <use x="160.986328" xlink:href="#DejaVuSans-105"/>
       <use x="188.769531" xlink:href="#DejaVuSans-66"/>
      </g>
     </g>
    </g>
    <g id="xtick_7">
     <g id="text_7">
      <!-- 4 KiB -->
      <g style="fill:#262626;" transform="translate(642.366562 665.837422)scale(0.165 -0.165)">
       <use xlink:href="#DejaVuSans-52"/>
       <use x="63.623047" xlink:href="#DejaVuSans-32"/>
       <use x="95.410156" xlink:href="#DejaVuSans-75"/>
       <use x="160.986328" xlink:href="#DejaVuSans-105"/>
       <use x="188.769531" xlink:href="#DejaVuSans-66"/>
      </g>
     </g>
    </g>
    <g id="xtick_8">
     <g id="text_8">
      <!-- 8 KiB -->
      <g style="fill:#262626;" transform="translate(716.766562 665.837422)scale(0.165 -0.165)">
       <use xlink:href="#DejaVuSans-56"/>
       <use x="63.623047" xlink:href="#DejaVuSans-32"/>
       <use x="95.410156" xlink:href="#DejaVuSans-75"/>
       <use x="160.986328" xlink:href="#DejaVuSans-105"/>
       <use x="188.769531" xlink:href="#DejaVuSans-66"/>
      </g>
     </g>
    </g>
    <g id="xtick_9">
     <g id="text_9">
      <!-- 16 KiB -->
      <g style="fill:#262626;" transform="translate(785.9175 665.837422)scale(0.165 -0.165)">
       <use xlink:href="#DejaVuSans-49"/>
       <use x="63.623047" xlink:href="#DejaVuSans-54"/>
       <use x="127.246094" xlink:href="#DejaVuSans-32"/>
       <use x="159.033203" xlink:href="#DejaVuSans-75"/>
       <use x="224.609375" xlink:href="#DejaVuSans-105"/>
       <use x="252.392578" xlink:href="#DejaVuSans-66"/>
      </g>
     </g>
    </g>
    <g id="xtick_10">
     <g id="text_10">
      <!-- 32 KiB -->
      <defs>
       <path d="M 40.578125 39.3125 
Q 47.65625 37.796875 51.625 33 
Q 55.609375 28.21875 55.609375 21.1875 
Q 55.609375 10.40625 48.1875 4.484375 
Q 40.765625 -1.421875 27.09375 -1.421875 
Q 22.515625 -1.421875 17.65625 -0.515625 
Q 12.796875 0.390625 7.625 2.203125 
L 7.625 11.71875 
Q 11.71875 9.328125 16.59375 8.109375 
Q 21.484375 6.890625 26.8125 6.890625 
Q 36.078125 6.890625 40.9375 10.546875 
Q 45.796875 14.203125 45.796875 21.1875 
Q 45.796875 27.640625 41.28125 31.265625 
Q 36.765625 34.90625 28.71875 34.90625 
L 20.21875 34.90625 
L 20.21875 43.015625 
L 29.109375 43.015625 
Q 36.375 43.015625 40.234375 45.921875 
Q 44.09375 48.828125 44.09375 54.296875 
Q 44.09375 59.90625 40.109375 62.90625 
Q 36.140625 65.921875 28.71875 65.921875 
Q 24.65625 65.921875 20.015625 65.03125 
Q 15.375 64.15625 9.8125 62.3125 
L 9.8125 71.09375 
Q 15.4375 72.65625 20.34375 73.4375 
Q 25.25 74.21875 29.59375 74.21875 
Q 40.828125 74.21875 47.359375 69.109375 
Q 53.90625 64.015625 53.90625 55.328125 
Q 53.90625 49.265625 50.4375 45.09375 
Q 46.96875 40.921875 40.578125 39.3125 
z
" id="DejaVuSans-51"/>
      </defs>
      <g style="fill:#262626;" transform="translate(860.3175 665.837422)scale(0.165 -0.165)">
       <use xlink:href="#DejaVuSans-51"/>
       <use x="63.623047" xlink:href="#DejaVuSans-50"/>
       <use x="127.246094" xlink:href="#DejaVuSans-32"/>
       <use x="159.033203" xlink:href="#DejaVuSans-75"/>
       <use x="224.609375" xlink:href="#DejaVuSans-105"/>
       <use x="252.392578" xlink:href="#DejaVuSans-66"/>
      </g>
     </g>
    </g>
    <g id="xtick_11">
     <g id="text_11">
      <!-- 64 KiB -->
      <g style="fill:#262626;" transform="translate(934.7175 665.837422)scale(0.165 -0.165)">
       <use xlink:href="#DejaVuSans-54"/>
       <use x="63.623047" xlink:href="#DejaVuSans-52"/>
       <use x="127.246094" xlink:href="#DejaVuSans-32"/>
       <use x="159.033203" xlink:href="#DejaVuSans-75"/>
       <use x="224.609375" xlink:href="#DejaVuSans-105"/>
       <use x="252.392578" xlink:href="#DejaVuSans-66"/>
      </g>
     </g>
    </g>
    <g id="xtick_12">
     <g id="text_12">
      <!-- 128 KiB -->
      <g style="fill:#262626;" transform="translate(1003.868438 665.837422)scale(0.165 -0.165)">
       <use xlink:href="#DejaVuSans-49"/>
       <use x="63.623047" xlink:href="#DejaVuSans-50"/>
       <use x="127.246094" xlink:href="#DejaVuSans-56"/>
       <use x="190.869141" xlink:href="#DejaVuSans-32"/>
       <use x="222.65625" xlink:href="#DejaVuSans-75"/>
       <use x="288.232422" xlink:href="#DejaVuSans-105"/>
       <use x="316.015625" xlink:href="#DejaVuSans-66"/>
      </g>
     </g>
    </g>
    <g id="xtick_13">
     <g id="text_13">
      <!-- 256 KiB -->
      <g style="fill:#262626;" transform="translate(1078.268437 665.837422)scale(0.165 -0.165)">
       <use xlink:href="#DejaVuSans-50"/>
       <use x="63.623047" xlink:href="#DejaVuSans-53"/>
       <use x="127.246094" xlink:href="#DejaVuSans-54"/>
       <use x="190.869141" xlink:href="#DejaVuSans-32"/>
       <use x="222.65625" xlink:href="#DejaVuSans-75"/>
       <use x="288.232422" xlink:href="#DejaVuSans-105"/>
       <use x="316.015625" xlink:href="#DejaVuSans-66"/>
      </g>
     </g>
    </g>
    <g id="xtick_14">
     <g id="text_14">
      <!-- 512 KiB -->
      <g style="fill:#262626;" transform="translate(1152.668437 665.837422)scale(0.165 -0.165)">
       <use xlink:href="#DejaVuSans-53"/>
       <use x="63.623047" xlink:href="#DejaVuSans-49"/>
       <use x="127.246094" xlink:href="#DejaVuSans-50"/>
       <use x="190.869141" xlink:href="#DejaVuSans-32"/>
       <use x="222.65625" xlink:href="#DejaVuSans-75"/>
       <use x="288.232422" xlink:href="#DejaVuSans-105"/>
       <use x="316.015625" xlink:href="#DejaVuSans-66"/>
      </g>
     </g>
    </g>
    <g id="xtick_15">
     <g id="text_15">
      <!-- 1 MiB -->
      <defs>
       <path d="M 9.8125 72.90625 
L 24.515625 72.90625 
L 43.109375 23.296875 
L 61.8125 72.90625 
L 76.515625 72.90625 
L 76.515625 0 
L 66.890625 0 
L 66.890625 64.015625 
L 48.09375 14.015625 
L 38.1875 14.015625 
L 19.390625 64.015625 
L 19.390625 0 
L 9.8125 0 
z
" id="DejaVuSans-77"/>
      </defs>
      <g style="fill:#262626;" transform="translate(1235.858555 665.837422)scale(0.165 -0.165)">
       <use xlink:href="#DejaVuSans-49"/>
       <use x="63.623047" xlink:href="#DejaVuSans-32"/>
       <use x="95.410156" xlink:href="#DejaVuSans-77"/>
       <use x="181.689453" xlink:href="#DejaVuSans-105"/>
       <use x="209.472656" xlink:href="#DejaVuSans-66"/>
      </g>
     </g>
    </g>
    <g id="text_16">
     <!-- input bytes -->
     <defs>
      <path d="M 54.890625 33.015625 
L 54.890625 0 
L 45.90625 0 
L 45.90625 32.71875 
Q 45.90625 40.484375 42.875 44.328125 
Q 39.84375 48.1875 33.796875 48.1875 
Q 26.515625 48.1875 22.3125 43.546875 
Q 18.109375 38.921875 18.109375 30.90625 
L 18.109375 0 
L 9.078125 0 
L 9.078125 54.6875 
L 18.109375 54.6875 
L 18.109375 46.1875 
Q 21.34375 51.125 25.703125 53.5625 
Q 30.078125 56 35.796875 56 
Q 45.21875 56 50.046875 50.171875 
Q 54.890625 44.34375 54.890625 33.015625 
z
" id="DejaVuSans-110"/>
      <path d="M 18.109375 8.203125 
L 18.109375 -20.796875 
L 9.078125 -20.796875 
L 9.078125 54.6875 
L 18.109375 54.6875 
L 18.109375 46.390625 
Q 20.953125 51.265625 25.265625 53.625 
Q 29.59375 56 35.59375 56 
Q 45.5625 56 51.78125 48.09375 
Q 58.015625 40.1875 58.015625 27.296875 
Q 58.015625 14.40625 51.78125 6.484375 
Q 45.5625 -1.421875 35.59375 -1.421875 
Q 29.59375 -1.421875 25.265625 0.953125 
Q 20.953125 3.328125 18.109375 8.203125 
z
M 48.6875 27.296875 
Q 48.6875 37.203125 44.609375 42.84375 
Q 40.53125 48.484375 33.40625 48.484375 
Q 26.265625 48.484375 22.1875 42.84375 
Q 18.109375 37.203125 18.109375 27.296875 
Q 18.109375 17.390625 22.1875 11.75 
Q 26.265625 6.109375 33.40625 6.109375 
Q 40.53125 6.109375 44.609375 11.75 
Q 48.6875 17.390625 48.6875 27.296875 
z
" id="DejaVuSans-112"/>
      <path d="M 8.5 21.578125 
L 8.5 54.6875 
L 17.484375 54.6875 
L 17.484375 21.921875 
Q 17.484375 14.15625 20.5 10.265625 
Q 23.53125 6.390625 29.59375 6.390625 
Q 36.859375 6.390625 41.078125 11.03125 
Q 45.3125 15.671875 45.3125 23.6875 
L 45.3125 54.6875 
L 54.296875 54.6875 
L 54.296875 0 
L 45.3125 0 
L 45.3125 8.40625 
Q 42.046875 3.421875 37.71875 1 
Q 33.40625 -1.421875 27.6875 -1.421875 
Q 18.265625 -1.421875 13.375 4.4375 
Q 8.5 10.296875 8.5 21.578125 
z
M 31.109375 56 
z
" id="DejaVuSans-117"/>
      <path d="M 18.3125 70.21875 
L 18.3125 54.6875 
L 36.8125 54.6875 
L 36.8125 47.703125 
L 18.3125 47.703125 
L 18.3125 18.015625 
Q 18.3125 11.328125 20.140625 9.421875 
Q 21.96875 7.515625 27.59375 7.515625 
L 36.8125 7.515625 
L 36.8125 0 
L 27.59375 0 
Q 17.1875 0 13.234375 3.875 
Q 9.28125 7.765625 9.28125 18.015625 
L 9.28125 47.703125 
L 2.6875 47.703125 
L 2.6875 54.6875 
L 9.28125 54.6875 
L 9.28125 70.21875 
z
" id="DejaVuSans-116"/>
      <path d="M 48.6875 27.296875 
Q 48.6875 37.203125 44.609375 42.84375 
Q 40.53125 48.484375 33.40625 48.484375 
Q 26.265625 48.484375 22.1875 42.84375 
Q 18.109375 37.203125 18.109375 27.296875 
Q 18.109375 17.390625 22.1875 11.75 
Q 26.265625 6.109375 33.40625 6.109375 
Q 40.53125 6.109375 44.609375 11.75 
Q 48.6875 17.390625 48.6875 27.296875 
z
M 18.109375 46.390625 
Q 20.953125 51.265625 25.265625 53.625 
Q 29.59375 56 35.59375 56 
Q 45.5625 56 51.78125 48.09375 
Q 58.015625 40.1875 58.015625 27.296875 
Q 58.015625 14.40625 51.78125 6.484375 
Q 45.5625 -1.421875 35.59375 -1.421875 
Q 29.59375 -1.421875 25.265625 0.953125 
Q 20.953125 3.328125 18.109375 8.203125 
L 18.109375 0 
L 9.078125 0 
L 9.078125 75.984375 
L 18.109375 75.984375 
z
" id="DejaVuSans-98"/>
      <path d="M 32.171875 -5.078125 
Q 28.375 -14.84375 24.75 -17.8125 
Q 21.140625 -20.796875 15.09375 -20.796875 
L 7.90625 -20.796875 
L 7.90625 -13.28125 
L 13.1875 -13.28125 
Q 16.890625 -13.28125 18.9375 -11.515625 
Q 21 -9.765625 23.484375 -3.21875 
L 25.09375 0.875 
L 2.984375 54.6875 
L 12.5 54.6875 
L 29.59375 11.921875 
L 46.6875 54.6875 
L 56.203125 54.6875 
z
" id="DejaVuSans-121"/>
      <path d="M 56.203125 29.59375 
L 56.203125 25.203125 
L 14.890625 25.203125 
Q 15.484375 15.921875 20.484375 11.0625 
Q 25.484375 6.203125 34.421875 6.203125 
Q 39.59375 6.203125 44.453125 7.46875 
Q 49.3125 8.734375 54.109375 11.28125 
L 54.109375 2.78125 
Q 49.265625 0.734375 44.1875 -0.34375 
Q 39.109375 -1.421875 33.890625 -1.421875 
Q 20.796875 -1.421875 13.15625 6.1875 
Q 5.515625 13.8125 5.515625 26.8125 
Q 5.515625 40.234375 12.765625 48.109375 
Q 20.015625 56 32.328125 56 
Q 43.359375 56 49.78125 48.890625 
Q 56.203125 41.796875 56.203125 29.59375 
z
M 47.21875 32.234375 
Q 47.125 39.59375 43.09375 43.984375 
Q 39.0625 48.390625 32.421875 48.390625 
Q 24.90625 48.390625 20.390625 44.140625 
Q 15.875 39.890625 15.1875 32.171875 
z
" id="DejaVuSans-101"/>
      <path d="M 44.28125 53.078125 
L 44.28125 44.578125 
Q 40.484375 46.53125 36.375 47.5 
Q 32.28125 48.484375 27.875 48.484375 
Q 21.1875 48.484375 17.84375 46.4375 
Q 14.5 44.390625 14.5 40.28125 
Q 14.5 37.15625 16.890625 35.375 
Q 19.28125 33.59375 26.515625 31.984375 
L 29.59375 31.296875 
Q 39.15625 29.25 43.1875 25.515625 
Q 47.21875 21.78125 47.21875 15.09375 
Q 47.21875 7.46875 41.1875 3.015625 
Q 35.15625 -1.421875 24.609375 -1.421875 
Q 20.21875 -1.421875 15.453125 -0.5625 
Q 10.6875 0.296875 5.421875 2 
L 5.421875 11.28125 
Q 10.40625 8.6875 15.234375 7.390625 
Q 20.0625 6.109375 24.8125 6.109375 
Q 31.15625 6.109375 34.5625 8.28125 
Q 37.984375 10.453125 37.984375 14.40625 
Q 37.984375 18.0625 35.515625 20.015625 
Q 33.0625 21.96875 24.703125 23.78125 
L 21.578125 24.515625 
Q 13.234375 26.265625 9.515625 29.90625 
Q 5.8125 33.546875 5.8125 39.890625 
Q 5.8125 47.609375 11.28125 51.796875 
Q 16.75 56 26.8125 56 
Q 31.78125 56 36.171875 55.265625 
Q 40.578125 54.546875 44.28125 53.078125 
z
" id="DejaVuSans-115"/>
     </defs>
     <g style="fill:#262626;" transform="translate(687.195 686.946094)scale(0.18 -0.18)">
      <use xlink:href="#DejaVuSans-105"/>
      <use x="27.783203" xlink:href="#DejaVuSans-110"/>
      <use x="91.162109" xlink:href="#DejaVuSans-112"/>
      <use x="154.638672" xlink:href="#DejaVuSans-117"/>
      <use x="218.017578" xlink:href="#DejaVuSans-116"/>
      <use x="257.226562" xlink:href="#DejaVuSans-32"/>
      <use x="289.013672" xlink:href="#DejaVuSans-98"/>
      <use x="352.490234" xlink:href="#DejaVuSans-121"/>
      <use x="411.669922" xlink:href="#DejaVuSans-116"/>
      <use x="450.878906" xlink:href="#DejaVuSans-101"/>
      <use x="512.402344" xlink:href="#DejaVuSans-115"/>
     </g>
    </g>
   </g>
   <g id="matplotlib.axis_2">
    <g id="ytick_1">
     <g id="line2d_1">
      <path clip-path="url(#pe2f057c26e)" d="M 180 640.8 
L 1296 640.8 
" style="fill:none;stroke:#ffffff;stroke-linecap:round;stroke-width:1.5;"/>
     </g>
     <g id="text_17">
      <!-- 0 -->
      <defs>
       <path d="M 31.78125 66.40625 
Q 24.171875 66.40625 20.328125 58.90625 
Q 16.5 51.421875 16.5 36.375 
Q 16.5 21.390625 20.328125 13.890625 
Q 24.171875 6.390625 31.78125 6.390625 
Q 39.453125 6.390625 43.28125 13.890625 
Q 47.125 21.390625 47.125 36.375 
Q 47.125 51.421875 43.28125 58.90625 
Q 39.453125 66.40625 31.78125 66.40625 
z
M 31.78125 74.21875 
Q 44.046875 74.21875 50.515625 64.515625 
Q 56.984375 54.828125 56.984375 36.375 
Q 56.984375 17.96875 50.515625 8.265625 
Q 44.046875 -1.421875 31.78125 -1.421875 
Q 19.53125 -1.421875 13.0625 8.265625 
Q 6.59375 17.96875 6.59375 36.375 
Q 6.59375 54.828125 13.0625 64.515625 
Q 19.53125 74.21875 31.78125 74.21875 
z
" id="DejaVuSans-48"/>
      </defs>
      <g style="fill:#262626;" transform="translate(157.001875 647.068711)scale(0.165 -0.165)">
       <use xlink:href="#DejaVuSans-48"/>
      </g>
     </g>
    </g>
    <g id="ytick_2">
     <g id="line2d_2">
      <path clip-path="url(#pe2f057c26e)" d="M 180 564.443188 
L 1296 564.443188 
" style="fill:none;stroke:#ffffff;stroke-linecap:round;stroke-width:1.5;"/>
     </g>
     <g id="text_18">
      <!-- 20 -->
      <g style="fill:#262626;" transform="translate(146.50375 570.711899)scale(0.165 -0.165)">
       <use xlink:href="#DejaVuSans-50"/>
       <use x="63.623047" xlink:href="#DejaVuSans-48"/>
      </g>
     </g>
    </g>
    <g id="ytick_3">
     <g id="line2d_3">
      <path clip-path="url(#pe2f057c26e)" d="M 180 488.086376 
L 1296 488.086376 
" style="fill:none;stroke:#ffffff;stroke-linecap:round;stroke-width:1.5;"/>
     </g>
     <g id="text_19">
      <!-- 40 -->
      <g style="fill:#262626;" transform="translate(146.50375 494.355087)scale(0.165 -0.165)">
       <use xlink:href="#DejaVuSans-52"/>
       <use x="63.623047" xlink:href="#DejaVuSans-48"/>
      </g>
     </g>
    </g>
    <g id="ytick_4">
     <g id="line2d_4">
      <path clip-path="url(#pe2f057c26e)" d="M 180 411.729565 
L 1296 411.729565 
" style="fill:none;stroke:#ffffff;stroke-linecap:round;stroke-width:1.5;"/>
     </g>
     <g id="text_20">
      <!-- 60 -->
      <g style="fill:#262626;" transform="translate(146.50375 417.998276)scale(0.165 -0.165)">
       <use xlink:href="#DejaVuSans-54"/>
       <use x="63.623047" xlink:href="#DejaVuSans-48"/>
      </g>
     </g>
    </g>
    <g id="ytick_5">
     <g id="line2d_5">
      <path clip-path="url(#pe2f057c26e)" d="M 180 335.372753 
L 1296 335.372753 
" style="fill:none;stroke:#ffffff;stroke-linecap:round;stroke-width:1.5;"/>
     </g>
     <g id="text_21">
      <!-- 80 -->
      <g style="fill:#262626;" transform="translate(146.50375 341.641464)scale(0.165 -0.165)">
       <use xlink:href="#DejaVuSans-56"/>
       <use x="63.623047" xlink:href="#DejaVuSans-48"/>
      </g>
     </g>
    </g>
    <g id="ytick_6">
     <g id="line2d_6">
      <path clip-path="url(#pe2f057c26e)" d="M 180 259.015941 
L 1296 259.015941 
" style="fill:none;stroke:#ffffff;stroke-linecap:round;stroke-width:1.5;"/>
     </g>
     <g id="text_22">
      <!-- 100 -->
      <g style="fill:#262626;" transform="translate(136.005625 265.284652)scale(0.165 -0.165)">
       <use xlink:href="#DejaVuSans-49"/>
       <use x="63.623047" xlink:href="#DejaVuSans-48"/>
       <use x="127.246094" xlink:href="#DejaVuSans-48"/>
      </g>
     </g>
    </g>
    <g id="ytick_7">
     <g id="line2d_7">
      <path clip-path="url(#pe2f057c26e)" d="M 180 182.659129 
L 1296 182.659129 
" style="fill:none;stroke:#ffffff;stroke-linecap:round;stroke-width:1.5;"/>
     </g>
     <g id="text_23">
      <!-- 120 -->
      <g style="fill:#262626;" transform="translate(136.005625 188.92784)scale(0.165 -0.165)">
       <use xlink:href="#DejaVuSans-49"/>
       <use x="63.623047" xlink:href="#DejaVuSans-50"/>
       <use x="127.246094" xlink:href="#DejaVuSans-48"/>
      </g>
     </g>
    </g>
    <g id="ytick_8">
     <g id="line2d_8">
      <path clip-path="url(#pe2f057c26e)" d="M 180 106.302317 
L 1296 106.302317 
" style="fill:none;stroke:#ffffff;stroke-linecap:round;stroke-width:1.5;"/>
     </g>
     <g id="text_24">
      <!-- 140 -->
      <g style="fill:#262626;" transform="translate(136.005625 112.571028)scale(0.165 -0.165)">
       <use xlink:href="#DejaVuSans-49"/>
       <use x="63.623047" xlink:href="#DejaVuSans-52"/>
       <use x="127.246094" xlink:href="#DejaVuSans-48"/>
      </g>
     </g>
    </g>
    <g id="text_25">
     <!-- throughput (MB/s) -->
     <defs>
      <path d="M 54.890625 33.015625 
L 54.890625 0 
L 45.90625 0 
L 45.90625 32.71875 
Q 45.90625 40.484375 42.875 44.328125 
Q 39.84375 48.1875 33.796875 48.1875 
Q 26.515625 48.1875 22.3125 43.546875 
Q 18.109375 38.921875 18.109375 30.90625 
L 18.109375 0 
L 9.078125 0 
L 9.078125 75.984375 
L 18.109375 75.984375 
L 18.109375 46.1875 
Q 21.34375 51.125 25.703125 53.5625 
Q 30.078125 56 35.796875 56 
Q 45.21875 56 50.046875 50.171875 
Q 54.890625 44.34375 54.890625 33.015625 
z
" id="DejaVuSans-104"/>
      <path d="M 41.109375 46.296875 
Q 39.59375 47.171875 37.8125 47.578125 
Q 36.03125 48 33.890625 48 
Q 26.265625 48 22.1875 43.046875 
Q 18.109375 38.09375 18.109375 28.8125 
L 18.109375 0 
L 9.078125 0 
L 9.078125 54.6875 
L 18.109375 54.6875 
L 18.109375 46.1875 
Q 20.953125 51.171875 25.484375 53.578125 
Q 30.03125 56 36.53125 56 
Q 37.453125 56 38.578125 55.875 
Q 39.703125 55.765625 41.0625 55.515625 
z
" id="DejaVuSans-114"/>
      <path d="M 30.609375 48.390625 
Q 23.390625 48.390625 19.1875 42.75 
Q 14.984375 37.109375 14.984375 27.296875 
Q 14.984375 17.484375 19.15625 11.84375 
Q 23.34375 6.203125 30.609375 6.203125 
Q 37.796875 6.203125 41.984375 11.859375 
Q 46.1875 17.53125 46.1875 27.296875 
Q 46.1875 37.015625 41.984375 42.703125 
Q 37.796875 48.390625 30.609375 48.390625 
z
M 30.609375 56 
Q 42.328125 56 49.015625 48.375 
Q 55.71875 40.765625 55.71875 27.296875 
Q 55.71875 13.875 49.015625 6.21875 
Q 42.328125 -1.421875 30.609375 -1.421875 
Q 18.84375 -1.421875 12.171875 6.21875 
Q 5.515625 13.875 5.515625 27.296875 
Q 5.515625 40.765625 12.171875 48.375 
Q 18.84375 56 30.609375 56 
z
" id="DejaVuSans-111"/>
      <path d="M 45.40625 27.984375 
Q 45.40625 37.75 41.375 43.109375 
Q 37.359375 48.484375 30.078125 48.484375 
Q 22.859375 48.484375 18.828125 43.109375 
Q 14.796875 37.75 14.796875 27.984375 
Q 14.796875 18.265625 18.828125 12.890625 
Q 22.859375 7.515625 30.078125 7.515625 
Q 37.359375 7.515625 41.375 12.890625 
Q 45.40625 18.265625 45.40625 27.984375 
z
M 54.390625 6.78125 
Q 54.390625 -7.171875 48.1875 -13.984375 
Q 42 -20.796875 29.203125 -20.796875 
Q 24.46875 -20.796875 20.265625 -20.09375 
Q 16.0625 -19.390625 12.109375 -17.921875 
L 12.109375 -9.1875 
Q 16.0625 -11.328125 19.921875 -12.34375 
Q 23.78125 -13.375 27.78125 -13.375 
Q 36.625 -13.375 41.015625 -8.765625 
Q 45.40625 -4.15625 45.40625 5.171875 
L 45.40625 9.625 
Q 42.625 4.78125 38.28125 2.390625 
Q 33.9375 0 27.875 0 
Q 17.828125 0 11.671875 7.65625 
Q 5.515625 15.328125 5.515625 27.984375 
Q 5.515625 40.671875 11.671875 48.328125 
Q 17.828125 56 27.875 56 
Q 33.9375 56 38.28125 53.609375 
Q 42.625 51.21875 45.40625 46.390625 
L 45.40625 54.6875 
L 54.390625 54.6875 
z
" id="DejaVuSans-103"/>
      <path d="M 31 75.875 
Q 24.46875 64.65625 21.28125 53.65625 
Q 18.109375 42.671875 18.109375 31.390625 
Q 18.109375 20.125 21.3125 9.0625 
Q 24.515625 -2 31 -13.1875 
L 23.1875 -13.1875 
Q 15.875 -1.703125 12.234375 9.375 
Q 8.59375 20.453125 8.59375 31.390625 
Q 8.59375 42.28125 12.203125 53.3125 
Q 15.828125 64.359375 23.1875 75.875 
z
" id="DejaVuSans-40"/>
      <path d="M 25.390625 72.90625 
L 33.6875 72.90625 
L 8.296875 -9.28125 
L 0 -9.28125 
z
" id="DejaVuSans-47"/>
      <path d="M 8.015625 75.875 
L 15.828125 75.875 
Q 23.140625 64.359375 26.78125 53.3125 
Q 30.421875 42.28125 30.421875 31.390625 
Q 30.421875 20.453125 26.78125 9.375 
Q 23.140625 -1.703125 15.828125 -13.1875 
L 8.015625 -13.1875 
Q 14.5 -2 17.703125 9.0625 
Q 20.90625 20.125 20.90625 31.390625 
Q 20.90625 42.671875 17.703125 53.65625 
Q 14.5 64.65625 8.015625 75.875 
z
" id="DejaVuSans-41"/>
     </defs>
     <g style="fill:#262626;" transform="translate(128.262188 445.64625)rotate(-90)scale(0.18 -0.18)">
      <use xlink:href="#DejaVuSans-116"/>
      <use x="39.208984" xlink:href="#DejaVuSans-104"/>
      <use x="102.587891" xlink:href="#DejaVuSans-114"/>
      <use x="143.669922" xlink:href="#DejaVuSans-111"/>
      <use x="204.851562" xlink:href="#DejaVuSans-117"/>
      <use x="268.230469" xlink:href="#DejaVuSans-103"/>
      <use x="331.707031" xlink:href="#DejaVuSans-104"/>
      <use x="395.085938" xlink:href="#DejaVuSans-112"/>
      <use x="458.5625" xlink:href="#DejaVuSans-117"/>
      <use x="521.941406" xlink:href="#DejaVuSans-116"/>
      <use x="561.150391" xlink:href="#DejaVuSans-32"/>
      <use x="592.9375" xlink:href="#DejaVuSans-40"/>
      <use x="631.951172" xlink:href="#DejaVuSans-77"/>
      <use x="718.230469" xlink:href="#DejaVuSans-66"/>
      <use x="786.833984" xlink:href="#DejaVuSans-47"/>
      <use x="820.525391" xlink:href="#DejaVuSans-115"/>
      <use x="872.625" xlink:href="#DejaVuSans-41"/>
     </g>
    </g>
   </g>
   <g id="patch_3">
    <path clip-path="url(#pe2f057c26e)" d="M 187.44 640.8 
L 195.942857 640.8 
L 195.942857 521.928601 
L 187.44 521.928601 
z
" style="fill:#5875a4;stroke:#ffffff;stroke-linejoin:miter;stroke-width:1.5;"/>
   </g>
   <g id="patch_4">
    <path clip-path="url(#pe2f057c26e)" d="M 261.84 640.8 
L 270.342857 640.8 
L 270.342857 509.631021 
L 261.84 509.631021 
z
" style="fill:#5875a4;stroke:#ffffff;stroke-linejoin:miter;stroke-width:1.5;"/>
   </g>
   <g id="patch_5">
    <path clip-path="url(#pe2f057c26e)" d="M 336.24 640.8 
L 344.742857 640.8 
L 344.742857 502.604527 
L 336.24 502.604527 
z
" style="fill:#5875a4;stroke:#ffffff;stroke-linejoin:miter;stroke-width:1.5;"/>
   </g>
   <g id="patch_6">
    <path clip-path="url(#pe2f057c26e)" d="M 410.64 640.8 
L 419.142857 640.8 
L 419.142857 498.622075 
L 410.64 498.622075 
z
" style="fill:#5875a4;stroke:#ffffff;stroke-linejoin:miter;stroke-width:1.5;"/>
   </g>
   <g id="patch_7">
    <path clip-path="url(#pe2f057c26e)" d="M 485.04 640.8 
L 493.542857 640.8 
L 493.542857 496.536612 
L 485.04 496.536612 
z
" style="fill:#5875a4;stroke:#ffffff;stroke-linejoin:miter;stroke-width:1.5;"/>
   </g>
   <g id="patch_8">
    <path clip-path="url(#pe2f057c26e)" d="M 559.44 640.8 
L 567.942857 640.8 
L 567.942857 495.452891 
L 559.44 495.452891 
z
" style="fill:#5875a4;stroke:#ffffff;stroke-linejoin:miter;stroke-width:1.5;"/>
   </g>
   <g id="patch_9">
    <path clip-path="url(#pe2f057c26e)" d="M 633.84 640.8 
L 642.342857 640.8 
L 642.342857 494.930656 
L 633.84 494.930656 
z
" style="fill:#5875a4;stroke:#ffffff;stroke-linejoin:miter;stroke-width:1.5;"/>
   </g>
   <g id="patch_10">
    <path clip-path="url(#pe2f057c26e)" d="M 708.24 640.8 
L 716.742857 640.8 
L 716.742857 431.440962 
L 708.24 431.440962 
z
" style="fill:#5875a4;stroke:#ffffff;stroke-linejoin:miter;stroke-width:1.5;"/>
   </g>
   <g id="patch_11">
    <path clip-path="url(#pe2f057c26e)" d="M 782.64 640.8 
L 791.142857 640.8 
L 791.142857 311.013706 
L 782.64 311.013706 
z
" style="fill:#5875a4;stroke:#ffffff;stroke-linejoin:miter;stroke-width:1.5;"/>
   </g>
   <g id="patch_12">
    <path clip-path="url(#pe2f057c26e)" d="M 857.04 640.8 
L 865.542857 640.8 
L 865.542857 237.033291 
L 857.04 237.033291 
z
" style="fill:#5875a4;stroke:#ffffff;stroke-linejoin:miter;stroke-width:1.5;"/>
   </g>
   <g id="patch_13">
    <path clip-path="url(#pe2f057c26e)" d="M 931.44 640.8 
L 939.942857 640.8 
L 939.942857 182.313862 
L 931.44 182.313862 
z
" style="fill:#5875a4;stroke:#ffffff;stroke-linejoin:miter;stroke-width:1.5;"/>
   </g>
   <g id="patch_14">
    <path clip-path="url(#pe2f057c26e)" d="M 1005.84 640.8 
L 1014.342857 640.8 
L 1014.342857 137.994249 
L 1005.84 137.994249 
z
" style="fill:#5875a4;stroke:#ffffff;stroke-linejoin:miter;stroke-width:1.5;"/>
   </g>
   <g id="patch_15">
    <path clip-path="url(#pe2f057c26e)" d="M 1080.24 640.8 
L 1088.742857 640.8 
L 1088.742857 121.063712 
L 1080.24 121.063712 
z
" style="fill:#5875a4;stroke:#ffffff;stroke-linejoin:miter;stroke-width:1.5;"/>
   </g>
   <g id="patch_16">
    <path clip-path="url(#pe2f057c26e)" d="M 1154.64 640.8 
L 1163.142857 640.8 
L 1163.142857 118.372496 
L 1154.64 118.372496 
z
" style="fill:#5875a4;stroke:#ffffff;stroke-linejoin:miter;stroke-width:1.5;"/>
   </g>
   <g id="patch_17">
    <path clip-path="url(#pe2f057c26e)" d="M 1229.04 640.8 
L 1237.542857 640.8 
L 1237.542857 112.8 
L 1229.04 112.8 
z
" style="fill:#5875a4;stroke:#ffffff;stroke-linejoin:miter;stroke-width:1.5;"/>
   </g>
   <g id="patch_18">
    <path clip-path="url(#pe2f057c26e)" d="M 195.942857 640.8 
L 204.445714 640.8 
L 204.445714 514.045998 
L 195.942857 514.045998 
z
" style="fill:#cc8963;stroke:#ffffff;stroke-linejoin:miter;stroke-width:1.5;"/>
   </g>
   <g id="patch_19">
    <path clip-path="url(#pe2f057c26e)" d="M 270.342857 640.8 
L 278.845714 640.8 
L 278.845714 504.97803 
L 270.342857 504.97803 
z
" style="fill:#cc8963;stroke:#ffffff;stroke-linejoin:miter;stroke-width:1.5;"/>
   </g>
   <g id="patch_20">
    <path clip-path="url(#pe2f057c26e)" d="M 344.742857 640.8 
L 353.245714 640.8 
L 353.245714 500.078267 
L 344.742857 500.078267 
z
" style="fill:#cc8963;stroke:#ffffff;stroke-linejoin:miter;stroke-width:1.5;"/>
   </g>
   <g id="patch_21">
    <path clip-path="url(#pe2f057c26e)" d="M 419.142857 640.8 
L 427.645714 640.8 
L 427.645714 497.368668 
L 419.142857 497.368668 
z
" style="fill:#cc8963;stroke:#ffffff;stroke-linejoin:miter;stroke-width:1.5;"/>
   </g>
   <g id="patch_22">
    <path clip-path="url(#pe2f057c26e)" d="M 493.542857 640.8 
L 502.045714 640.8 
L 502.045714 495.914209 
L 493.542857 495.914209 
z
" style="fill:#cc8963;stroke:#ffffff;stroke-linejoin:miter;stroke-width:1.5;"/>
   </g>
   <g id="patch_23">
    <path clip-path="url(#pe2f057c26e)" d="M 567.942857 640.8 
L 576.445714 640.8 
L 576.445714 495.170072 
L 567.942857 495.170072 
z
" style="fill:#cc8963;stroke:#ffffff;stroke-linejoin:miter;stroke-width:1.5;"/>
   </g>
   <g id="patch_24">
    <path clip-path="url(#pe2f057c26e)" d="M 642.342857 640.8 
L 650.845714 640.8 
L 650.845714 494.820031 
L 642.342857 494.820031 
z
" style="fill:#cc8963;stroke:#ffffff;stroke-linejoin:miter;stroke-width:1.5;"/>
   </g>
   <g id="patch_25">
    <path clip-path="url(#pe2f057c26e)" d="M 716.742857 640.8 
L 725.245714 640.8 
L 725.245714 494.61469 
L 716.742857 494.61469 
z
" style="fill:#cc8963;stroke:#ffffff;stroke-linejoin:miter;stroke-width:1.5;"/>
   </g>
   <g id="patch_26">
    <path clip-path="url(#pe2f057c26e)" d="M 791.142857 640.8 
L 799.645714 640.8 
L 799.645714 494.582485 
L 791.142857 494.582485 
z
" style="fill:#cc8963;stroke:#ffffff;stroke-linejoin:miter;stroke-width:1.5;"/>
   </g>
   <g id="patch_27">
    <path clip-path="url(#pe2f057c26e)" d="M 865.542857 640.8 
L 874.045714 640.8 
L 874.045714 494.823174 
L 865.542857 494.823174 
z
" style="fill:#cc8963;stroke:#ffffff;stroke-linejoin:miter;stroke-width:1.5;"/>
   </g>
   <g id="patch_28">
    <path clip-path="url(#pe2f057c26e)" d="M 939.942857 640.8 
L 948.445714 640.8 
L 948.445714 494.91318 
L 939.942857 494.91318 
z
" style="fill:#cc8963;stroke:#ffffff;stroke-linejoin:miter;stroke-width:1.5;"/>
   </g>
   <g id="patch_29">
    <path clip-path="url(#pe2f057c26e)" d="M 1014.342857 640.8 
L 1022.845714 640.8 
L 1022.845714 494.940327 
L 1014.342857 494.940327 
z
" style="fill:#cc8963;stroke:#ffffff;stroke-linejoin:miter;stroke-width:1.5;"/>
   </g>
   <g id="patch_30">
    <path clip-path="url(#pe2f057c26e)" d="M 1088.742857 640.8 
L 1097.245714 640.8 
L 1097.245714 495.29971 
L 1088.742857 495.29971 
z
" style="fill:#cc8963;stroke:#ffffff;stroke-linejoin:miter;stroke-width:1.5;"/>
   </g>
   <g id="patch_31">
    <path clip-path="url(#pe2f057c26e)" d="M 1163.142857 640.8 
L 1171.645714 640.8 
L 1171.645714 496.577842 
L 1163.142857 496.577842 
z
" style="fill:#cc8963;stroke:#ffffff;stroke-linejoin:miter;stroke-width:1.5;"/>
   </g>
   <g id="patch_32">
    <path clip-path="url(#pe2f057c26e)" d="M 1237.542857 640.8 
L 1246.045714 640.8 
L 1246.045714 498.010963 
L 1237.542857 498.010963 
z
" style="fill:#cc8963;stroke:#ffffff;stroke-linejoin:miter;stroke-width:1.5;"/>
   </g>
   <g id="patch_33">
    <path clip-path="url(#pe2f057c26e)" d="M 204.445714 640.8 
L 212.948571 640.8 
L 212.948571 605.293275 
L 204.445714 605.293275 
z
" style="fill:#5f9e6e;stroke:#ffffff;stroke-linejoin:miter;stroke-width:1.5;"/>
   </g>
   <g id="patch_34">
    <path clip-path="url(#pe2f057c26e)" d="M 278.845714 640.8 
L 287.348571 640.8 
L 287.348571 567.978246 
L 278.845714 567.978246 
z
" style="fill:#5f9e6e;stroke:#ffffff;stroke-linejoin:miter;stroke-width:1.5;"/>
   </g>
   <g id="patch_35">
    <path clip-path="url(#pe2f057c26e)" d="M 353.245714 640.8 
L 361.748571 640.8 
L 361.748571 564.435254 
L 353.245714 564.435254 
z
" style="fill:#5f9e6e;stroke:#ffffff;stroke-linejoin:miter;stroke-width:1.5;"/>
   </g>
   <g id="patch_36">
    <path clip-path="url(#pe2f057c26e)" d="M 427.645714 640.8 
L 436.148571 640.8 
L 436.148571 562.227986 
L 427.645714 562.227986 
z
" style="fill:#5f9e6e;stroke:#ffffff;stroke-linejoin:miter;stroke-width:1.5;"/>
   </g>
   <g id="patch_37">
    <path clip-path="url(#pe2f057c26e)" d="M 502.045714 640.8 
L 510.548571 640.8 
L 510.548571 561.015353 
L 502.045714 561.015353 
z
" style="fill:#5f9e6e;stroke:#ffffff;stroke-linejoin:miter;stroke-width:1.5;"/>
   </g>
   <g id="patch_38">
    <path clip-path="url(#pe2f057c26e)" d="M 576.445714 640.8 
L 584.948571 640.8 
L 584.948571 560.457089 
L 576.445714 560.457089 
z
" style="fill:#5f9e6e;stroke:#ffffff;stroke-linejoin:miter;stroke-width:1.5;"/>
   </g>
   <g id="patch_39">
    <path clip-path="url(#pe2f057c26e)" d="M 650.845714 640.8 
L 659.348571 640.8 
L 659.348571 560.381214 
L 650.845714 560.381214 
z
" style="fill:#5f9e6e;stroke:#ffffff;stroke-linejoin:miter;stroke-width:1.5;"/>
   </g>
   <g id="patch_40">
    <path clip-path="url(#pe2f057c26e)" d="M 725.245714 640.8 
L 733.748571 640.8 
L 733.748571 560.135463 
L 725.245714 560.135463 
z
" style="fill:#5f9e6e;stroke:#ffffff;stroke-linejoin:miter;stroke-width:1.5;"/>
   </g>
   <g id="patch_41">
    <path clip-path="url(#pe2f057c26e)" d="M 799.645714 640.8 
L 808.148571 640.8 
L 808.148571 560.061947 
L 799.645714 560.061947 
z
" style="fill:#5f9e6e;stroke:#ffffff;stroke-linejoin:miter;stroke-width:1.5;"/>
   </g>
   <g id="patch_42">
    <path clip-path="url(#pe2f057c26e)" d="M 874.045714 640.8 
L 882.548571 640.8 
L 882.548571 560.407329 
L 874.045714 560.407329 
z
" style="fill:#5f9e6e;stroke:#ffffff;stroke-linejoin:miter;stroke-width:1.5;"/>
   </g>
   <g id="patch_43">
    <path clip-path="url(#pe2f057c26e)" d="M 948.445714 640.8 
L 956.948571 640.8 
L 956.948571 560.928077 
L 948.445714 560.928077 
z
" style="fill:#5f9e6e;stroke:#ffffff;stroke-linejoin:miter;stroke-width:1.5;"/>
   </g>
   <g id="patch_44">
    <path clip-path="url(#pe2f057c26e)" d="M 1022.845714 640.8 
L 1031.348571 640.8 
L 1031.348571 561.629851 
L 1022.845714 561.629851 
z
" style="fill:#5f9e6e;stroke:#ffffff;stroke-linejoin:miter;stroke-width:1.5;"/>
   </g>
   <g id="patch_45">
    <path clip-path="url(#pe2f057c26e)" d="M 1097.245714 640.8 
L 1105.748571 640.8 
L 1105.748571 564.562989 
L 1097.245714 564.562989 
z
" style="fill:#5f9e6e;stroke:#ffffff;stroke-linejoin:miter;stroke-width:1.5;"/>
   </g>
   <g id="patch_46">
    <path clip-path="url(#pe2f057c26e)" d="M 1171.645714 640.8 
L 1180.148571 640.8 
L 1180.148571 565.591706 
L 1171.645714 565.591706 
z
" style="fill:#5f9e6e;stroke:#ffffff;stroke-linejoin:miter;stroke-width:1.5;"/>
   </g>
   <g id="patch_47">
    <path clip-path="url(#pe2f057c26e)" d="M 1246.045714 640.8 
L 1254.548571 640.8 
L 1254.548571 563.923664 
L 1246.045714 563.923664 
z
" style="fill:#5f9e6e;stroke:#ffffff;stroke-linejoin:miter;stroke-width:1.5;"/>
   </g>
   <g id="patch_48">
    <path clip-path="url(#pe2f057c26e)" d="M 212.948571 640.8 
L 221.451429 640.8 
L 221.451429 630.180051 
L 212.948571 630.180051 
z
" style="fill:#b55d60;stroke:#ffffff;stroke-linejoin:miter;stroke-width:1.5;"/>
   </g>
   <g id="patch_49">
    <path clip-path="url(#pe2f057c26e)" d="M 287.348571 640.8 
L 295.851429 640.8 
L 295.851429 619.596016 
L 287.348571 619.596016 
z
" style="fill:#b55d60;stroke:#ffffff;stroke-linejoin:miter;stroke-width:1.5;"/>
   </g>
   <g id="patch_50">
    <path clip-path="url(#pe2f057c26e)" d="M 361.748571 640.8 
L 370.251429 640.8 
L 370.251429 598.300738 
L 361.748571 598.300738 
z
" style="fill:#b55d60;stroke:#ffffff;stroke-linejoin:miter;stroke-width:1.5;"/>
   </g>
   <g id="patch_51">
    <path clip-path="url(#pe2f057c26e)" d="M 436.148571 640.8 
L 444.651429 640.8 
L 444.651429 555.24377 
L 436.148571 555.24377 
z
" style="fill:#b55d60;stroke:#ffffff;stroke-linejoin:miter;stroke-width:1.5;"/>
   </g>
   <g id="patch_52">
    <path clip-path="url(#pe2f057c26e)" d="M 510.548571 640.8 
L 519.051429 640.8 
L 519.051429 532.595002 
L 510.548571 532.595002 
z
" style="fill:#b55d60;stroke:#ffffff;stroke-linejoin:miter;stroke-width:1.5;"/>
   </g>
   <g id="patch_53">
    <path clip-path="url(#pe2f057c26e)" d="M 584.948571 640.8 
L 593.451429 640.8 
L 593.451429 517.028975 
L 584.948571 517.028975 
z
" style="fill:#b55d60;stroke:#ffffff;stroke-linejoin:miter;stroke-width:1.5;"/>
   </g>
   <g id="patch_54">
    <path clip-path="url(#pe2f057c26e)" d="M 659.348571 640.8 
L 667.851429 640.8 
L 667.851429 507.231833 
L 659.348571 507.231833 
z
" style="fill:#b55d60;stroke:#ffffff;stroke-linejoin:miter;stroke-width:1.5;"/>
   </g>
   <g id="patch_55">
    <path clip-path="url(#pe2f057c26e)" d="M 733.748571 640.8 
L 742.251429 640.8 
L 742.251429 501.48875 
L 733.748571 501.48875 
z
" style="fill:#b55d60;stroke:#ffffff;stroke-linejoin:miter;stroke-width:1.5;"/>
   </g>
   <g id="patch_56">
    <path clip-path="url(#pe2f057c26e)" d="M 808.148571 640.8 
L 816.651429 640.8 
L 816.651429 498.996524 
L 808.148571 498.996524 
z
" style="fill:#b55d60;stroke:#ffffff;stroke-linejoin:miter;stroke-width:1.5;"/>
   </g>
   <g id="patch_57">
    <path clip-path="url(#pe2f057c26e)" d="M 882.548571 640.8 
L 891.051429 640.8 
L 891.051429 497.009864 
L 882.548571 497.009864 
z
" style="fill:#b55d60;stroke:#ffffff;stroke-linejoin:miter;stroke-width:1.5;"/>
   </g>
   <g id="patch_58">
    <path clip-path="url(#pe2f057c26e)" d="M 956.948571 640.8 
L 965.451429 640.8 
L 965.451429 496.836681 
L 956.948571 496.836681 
z
" style="fill:#b55d60;stroke:#ffffff;stroke-linejoin:miter;stroke-width:1.5;"/>
   </g>
   <g id="patch_59">
    <path clip-path="url(#pe2f057c26e)" d="M 1031.348571 640.8 
L 1039.851429 640.8 
L 1039.851429 496.866923 
L 1031.348571 496.866923 
z
" style="fill:#b55d60;stroke:#ffffff;stroke-linejoin:miter;stroke-width:1.5;"/>
   </g>
   <g id="patch_60">
    <path clip-path="url(#pe2f057c26e)" d="M 1105.748571 640.8 
L 1114.251429 640.8 
L 1114.251429 498.218414 
L 1105.748571 498.218414 
z
" style="fill:#b55d60;stroke:#ffffff;stroke-linejoin:miter;stroke-width:1.5;"/>
   </g>
   <g id="patch_61">
    <path clip-path="url(#pe2f057c26e)" d="M 1180.148571 640.8 
L 1188.651429 640.8 
L 1188.651429 505.012254 
L 1180.148571 505.012254 
z
" style="fill:#b55d60;stroke:#ffffff;stroke-linejoin:miter;stroke-width:1.5;"/>
   </g>
   <g id="patch_62">
    <path clip-path="url(#pe2f057c26e)" d="M 1254.548571 640.8 
L 1263.051429 640.8 
L 1263.051429 513.977235 
L 1254.548571 513.977235 
z
" style="fill:#b55d60;stroke:#ffffff;stroke-linejoin:miter;stroke-width:1.5;"/>
   </g>
   <g id="patch_63">
    <path clip-path="url(#pe2f057c26e)" d="M 221.451429 640.8 
L 229.954286 640.8 
L 229.954286 634.70418 
L 221.451429 634.70418 
z
" style="fill:#857aab;stroke:#ffffff;stroke-linejoin:miter;stroke-width:1.5;"/>
   </g>
   <g id="patch_64">
    <path clip-path="url(#pe2f057c26e)" d="M 295.851429 640.8 
L 304.354286 640.8 
L 304.354286 628.386966 
L 295.851429 628.386966 
z
" style="fill:#857aab;stroke:#ffffff;stroke-linejoin:miter;stroke-width:1.5;"/>
   </g>
   <g id="patch_65">
    <path clip-path="url(#pe2f057c26e)" d="M 370.251429 640.8 
L 378.754286 640.8 
L 378.754286 615.943689 
L 370.251429 615.943689 
z
" style="fill:#857aab;stroke:#ffffff;stroke-linejoin:miter;stroke-width:1.5;"/>
   </g>
   <g id="patch_66">
    <path clip-path="url(#pe2f057c26e)" d="M 444.651429 640.8 
L 453.154286 640.8 
L 453.154286 590.739032 
L 444.651429 590.739032 
z
" style="fill:#857aab;stroke:#ffffff;stroke-linejoin:miter;stroke-width:1.5;"/>
   </g>
   <g id="patch_67">
    <path clip-path="url(#pe2f057c26e)" d="M 519.051429 640.8 
L 527.554286 640.8 
L 527.554286 578.852984 
L 519.051429 578.852984 
z
" style="fill:#857aab;stroke:#ffffff;stroke-linejoin:miter;stroke-width:1.5;"/>
   </g>
   <g id="patch_68">
    <path clip-path="url(#pe2f057c26e)" d="M 593.451429 640.8 
L 601.954286 640.8 
L 601.954286 570.33699 
L 593.451429 570.33699 
z
" style="fill:#857aab;stroke:#ffffff;stroke-linejoin:miter;stroke-width:1.5;"/>
   </g>
   <g id="patch_69">
    <path clip-path="url(#pe2f057c26e)" d="M 667.851429 640.8 
L 676.354286 640.8 
L 676.354286 565.169244 
L 667.851429 565.169244 
z
" style="fill:#857aab;stroke:#ffffff;stroke-linejoin:miter;stroke-width:1.5;"/>
   </g>
   <g id="patch_70">
    <path clip-path="url(#pe2f057c26e)" d="M 742.251429 640.8 
L 750.754286 640.8 
L 750.754286 562.351571 
L 742.251429 562.351571 
z
" style="fill:#857aab;stroke:#ffffff;stroke-linejoin:miter;stroke-width:1.5;"/>
   </g>
   <g id="patch_71">
    <path clip-path="url(#pe2f057c26e)" d="M 816.651429 640.8 
L 825.154286 640.8 
L 825.154286 560.911804 
L 816.651429 560.911804 
z
" style="fill:#857aab;stroke:#ffffff;stroke-linejoin:miter;stroke-width:1.5;"/>
   </g>
   <g id="patch_72">
    <path clip-path="url(#pe2f057c26e)" d="M 891.051429 640.8 
L 899.554286 640.8 
L 899.554286 560.330281 
L 891.051429 560.330281 
z
" style="fill:#857aab;stroke:#ffffff;stroke-linejoin:miter;stroke-width:1.5;"/>
   </g>
   <g id="patch_73">
    <path clip-path="url(#pe2f057c26e)" d="M 965.451429 640.8 
L 973.954286 640.8 
L 973.954286 560.342694 
L 965.451429 560.342694 
z
" style="fill:#857aab;stroke:#ffffff;stroke-linejoin:miter;stroke-width:1.5;"/>
   </g>
   <g id="patch_74">
    <path clip-path="url(#pe2f057c26e)" d="M 1039.851429 640.8 
L 1048.354286 640.8 
L 1048.354286 560.662997 
L 1039.851429 560.662997 
z
" style="fill:#857aab;stroke:#ffffff;stroke-linejoin:miter;stroke-width:1.5;"/>
   </g>
   <g id="patch_75">
    <path clip-path="url(#pe2f057c26e)" d="M 1114.251429 640.8 
L 1122.754286 640.8 
L 1122.754286 562.107359 
L 1114.251429 562.107359 
z
" style="fill:#857aab;stroke:#ffffff;stroke-linejoin:miter;stroke-width:1.5;"/>
   </g>
   <g id="patch_76">
    <path clip-path="url(#pe2f057c26e)" d="M 1188.651429 640.8 
L 1197.154286 640.8 
L 1197.154286 564.501709 
L 1188.651429 564.501709 
z
" style="fill:#857aab;stroke:#ffffff;stroke-linejoin:miter;stroke-width:1.5;"/>
   </g>
   <g id="patch_77">
    <path clip-path="url(#pe2f057c26e)" d="M 1263.051429 640.8 
L 1271.554286 640.8 
L 1271.554286 566.553204 
L 1263.051429 566.553204 
z
" style="fill:#857aab;stroke:#ffffff;stroke-linejoin:miter;stroke-width:1.5;"/>
   </g>
   <g id="patch_78">
    <path clip-path="url(#pe2f057c26e)" d="M 229.954286 640.8 
L 238.457143 640.8 
L 238.457143 605.750063 
L 229.954286 605.750063 
z
" style="fill:#8d7866;stroke:#ffffff;stroke-linejoin:miter;stroke-width:1.5;"/>
   </g>
   <g id="patch_79">
    <path clip-path="url(#pe2f057c26e)" d="M 304.354286 640.8 
L 312.857143 640.8 
L 312.857143 585.769639 
L 304.354286 585.769639 
z
" style="fill:#8d7866;stroke:#ffffff;stroke-linejoin:miter;stroke-width:1.5;"/>
   </g>
   <g id="patch_80">
    <path clip-path="url(#pe2f057c26e)" d="M 378.754286 640.8 
L 387.257143 640.8 
L 387.257143 565.138119 
L 378.754286 565.138119 
z
" style="fill:#8d7866;stroke:#ffffff;stroke-linejoin:miter;stroke-width:1.5;"/>
   </g>
   <g id="patch_81">
    <path clip-path="url(#pe2f057c26e)" d="M 453.154286 640.8 
L 461.657143 640.8 
L 461.657143 547.721522 
L 453.154286 547.721522 
z
" style="fill:#8d7866;stroke:#ffffff;stroke-linejoin:miter;stroke-width:1.5;"/>
   </g>
   <g id="patch_82">
    <path clip-path="url(#pe2f057c26e)" d="M 527.554286 640.8 
L 536.057143 640.8 
L 536.057143 535.625854 
L 527.554286 535.625854 
z
" style="fill:#8d7866;stroke:#ffffff;stroke-linejoin:miter;stroke-width:1.5;"/>
   </g>
   <g id="patch_83">
    <path clip-path="url(#pe2f057c26e)" d="M 601.954286 640.8 
L 610.457143 640.8 
L 610.457143 528.297697 
L 601.954286 528.297697 
z
" style="fill:#8d7866;stroke:#ffffff;stroke-linejoin:miter;stroke-width:1.5;"/>
   </g>
   <g id="patch_84">
    <path clip-path="url(#pe2f057c26e)" d="M 676.354286 640.8 
L 684.857143 640.8 
L 684.857143 524.239673 
L 676.354286 524.239673 
z
" style="fill:#8d7866;stroke:#ffffff;stroke-linejoin:miter;stroke-width:1.5;"/>
   </g>
   <g id="patch_85">
    <path clip-path="url(#pe2f057c26e)" d="M 750.754286 640.8 
L 759.257143 640.8 
L 759.257143 522.136168 
L 750.754286 522.136168 
z
" style="fill:#8d7866;stroke:#ffffff;stroke-linejoin:miter;stroke-width:1.5;"/>
   </g>
   <g id="patch_86">
    <path clip-path="url(#pe2f057c26e)" d="M 825.154286 640.8 
L 833.657143 640.8 
L 833.657143 521.082959 
L 825.154286 521.082959 
z
" style="fill:#8d7866;stroke:#ffffff;stroke-linejoin:miter;stroke-width:1.5;"/>
   </g>
   <g id="patch_87">
    <path clip-path="url(#pe2f057c26e)" d="M 899.554286 640.8 
L 908.057143 640.8 
L 908.057143 521.514492 
L 899.554286 521.514492 
z
" style="fill:#8d7866;stroke:#ffffff;stroke-linejoin:miter;stroke-width:1.5;"/>
   </g>
   <g id="patch_88">
    <path clip-path="url(#pe2f057c26e)" d="M 973.954286 640.8 
L 982.457143 640.8 
L 982.457143 521.587239 
L 973.954286 521.587239 
z
" style="fill:#8d7866;stroke:#ffffff;stroke-linejoin:miter;stroke-width:1.5;"/>
   </g>
   <g id="patch_89">
    <path clip-path="url(#pe2f057c26e)" d="M 1048.354286 640.8 
L 1056.857143 640.8 
L 1056.857143 520.396218 
L 1048.354286 520.396218 
z
" style="fill:#8d7866;stroke:#ffffff;stroke-linejoin:miter;stroke-width:1.5;"/>
   </g>
   <g id="patch_90">
    <path clip-path="url(#pe2f057c26e)" d="M 1122.754286 640.8 
L 1131.257143 640.8 
L 1131.257143 520.545893 
L 1122.754286 520.545893 
z
" style="fill:#8d7866;stroke:#ffffff;stroke-linejoin:miter;stroke-width:1.5;"/>
   </g>
   <g id="patch_91">
    <path clip-path="url(#pe2f057c26e)" d="M 1197.154286 640.8 
L 1205.657143 640.8 
L 1205.657143 521.564416 
L 1197.154286 521.564416 
z
" style="fill:#8d7866;stroke:#ffffff;stroke-linejoin:miter;stroke-width:1.5;"/>
   </g>
   <g id="patch_92">
    <path clip-path="url(#pe2f057c26e)" d="M 1271.554286 640.8 
L 1280.057143 640.8 
L 1280.057143 522.59438 
L 1271.554286 522.59438 
z
" style="fill:#8d7866;stroke:#ffffff;stroke-linejoin:miter;stroke-width:1.5;"/>
   </g>
   <g id="patch_93">
    <path clip-path="url(#pe2f057c26e)" d="M 238.457143 640.8 
L 246.96 640.8 
L 246.96 609.013502 
L 238.457143 609.013502 
z
" style="fill:#d095bf;stroke:#ffffff;stroke-linejoin:miter;stroke-width:1.5;"/>
   </g>
   <g id="patch_94">
    <path clip-path="url(#pe2f057c26e)" d="M 312.857143 640.8 
L 321.36 640.8 
L 321.36 600.529178 
L 312.857143 600.529178 
z
" style="fill:#d095bf;stroke:#ffffff;stroke-linejoin:miter;stroke-width:1.5;"/>
   </g>
   <g id="patch_95">
    <path clip-path="url(#pe2f057c26e)" d="M 387.257143 640.8 
L 395.76 640.8 
L 395.76 582.262434 
L 387.257143 582.262434 
z
" style="fill:#d095bf;stroke:#ffffff;stroke-linejoin:miter;stroke-width:1.5;"/>
   </g>
   <g id="patch_96">
    <path clip-path="url(#pe2f057c26e)" d="M 461.657143 640.8 
L 470.16 640.8 
L 470.16 565.10542 
L 461.657143 565.10542 
z
" style="fill:#d095bf;stroke:#ffffff;stroke-linejoin:miter;stroke-width:1.5;"/>
   </g>
   <g id="patch_97">
    <path clip-path="url(#pe2f057c26e)" d="M 536.057143 640.8 
L 544.56 640.8 
L 544.56 551.356591 
L 536.057143 551.356591 
z
" style="fill:#d095bf;stroke:#ffffff;stroke-linejoin:miter;stroke-width:1.5;"/>
   </g>
   <g id="patch_98">
    <path clip-path="url(#pe2f057c26e)" d="M 610.457143 640.8 
L 618.96 640.8 
L 618.96 542.921378 
L 610.457143 542.921378 
z
" style="fill:#d095bf;stroke:#ffffff;stroke-linejoin:miter;stroke-width:1.5;"/>
   </g>
   <g id="patch_99">
    <path clip-path="url(#pe2f057c26e)" d="M 684.857143 640.8 
L 693.36 640.8 
L 693.36 538.748403 
L 684.857143 538.748403 
z
" style="fill:#d095bf;stroke:#ffffff;stroke-linejoin:miter;stroke-width:1.5;"/>
   </g>
   <g id="patch_100">
    <path clip-path="url(#pe2f057c26e)" d="M 759.257143 640.8 
L 767.76 640.8 
L 767.76 535.471718 
L 759.257143 535.471718 
z
" style="fill:#d095bf;stroke:#ffffff;stroke-linejoin:miter;stroke-width:1.5;"/>
   </g>
   <g id="patch_101">
    <path clip-path="url(#pe2f057c26e)" d="M 833.657143 640.8 
L 842.16 640.8 
L 842.16 534.191439 
L 833.657143 534.191439 
z
" style="fill:#d095bf;stroke:#ffffff;stroke-linejoin:miter;stroke-width:1.5;"/>
   </g>
   <g id="patch_102">
    <path clip-path="url(#pe2f057c26e)" d="M 908.057143 640.8 
L 916.56 640.8 
L 916.56 534.310153 
L 908.057143 534.310153 
z
" style="fill:#d095bf;stroke:#ffffff;stroke-linejoin:miter;stroke-width:1.5;"/>
   </g>
   <g id="patch_103">
    <path clip-path="url(#pe2f057c26e)" d="M 982.457143 640.8 
L 990.96 640.8 
L 990.96 534.019572 
L 982.457143 534.019572 
z
" style="fill:#d095bf;stroke:#ffffff;stroke-linejoin:miter;stroke-width:1.5;"/>
   </g>
   <g id="patch_104">
    <path clip-path="url(#pe2f057c26e)" d="M 1056.857143 640.8 
L 1065.36 640.8 
L 1065.36 533.166098 
L 1056.857143 533.166098 
z
" style="fill:#d095bf;stroke:#ffffff;stroke-linejoin:miter;stroke-width:1.5;"/>
   </g>
   <g id="patch_105">
    <path clip-path="url(#pe2f057c26e)" d="M 1131.257143 640.8 
L 1139.76 640.8 
L 1139.76 533.25371 
L 1131.257143 533.25371 
z
" style="fill:#d095bf;stroke:#ffffff;stroke-linejoin:miter;stroke-width:1.5;"/>
   </g>
   <g id="patch_106">
    <path clip-path="url(#pe2f057c26e)" d="M 1205.657143 640.8 
L 1214.16 640.8 
L 1214.16 534.631519 
L 1205.657143 534.631519 
z
" style="fill:#d095bf;stroke:#ffffff;stroke-linejoin:miter;stroke-width:1.5;"/>
   </g>
   <g id="patch_107">
    <path clip-path="url(#pe2f057c26e)" d="M 1280.057143 640.8 
L 1288.56 640.8 
L 1288.56 535.593593 
L 1280.057143 535.593593 
z
" style="fill:#d095bf;stroke:#ffffff;stroke-linejoin:miter;stroke-width:1.5;"/>
   </g>
   <g id="line2d_9">
    <path clip-path="url(#pe2f057c26e)" d="M 0 0 
" style="fill:none;stroke:#424242;stroke-linecap:round;stroke-width:4.05;"/>
   </g>
   <g id="line2d_10">
    <path clip-path="url(#pe2f057c26e)" d="M 0 0 
" style="fill:none;stroke:#424242;stroke-linecap:round;stroke-width:4.05;"/>
   </g>
   <g id="line2d_11">
    <path clip-path="url(#pe2f057c26e)" d="M 0 0 
" style="fill:none;stroke:#424242;stroke-linecap:round;stroke-width:4.05;"/>
   </g>
   <g id="line2d_12">
    <path clip-path="url(#pe2f057c26e)" d="M 0 0 
" style="fill:none;stroke:#424242;stroke-linecap:round;stroke-width:4.05;"/>
   </g>
   <g id="line2d_13">
    <path clip-path="url(#pe2f057c26e)" d="M 0 0 
" style="fill:none;stroke:#424242;stroke-linecap:round;stroke-width:4.05;"/>
   </g>
   <g id="line2d_14">
    <path clip-path="url(#pe2f057c26e)" d="M 0 0 
" style="fill:none;stroke:#424242;stroke-linecap:round;stroke-width:4.05;"/>
   </g>
   <g id="line2d_15">
    <path clip-path="url(#pe2f057c26e)" d="M 0 0 
" style="fill:none;stroke:#424242;stroke-linecap:round;stroke-width:4.05;"/>
   </g>
   <g id="line2d_16">
    <path clip-path="url(#pe2f057c26e)" d="M 0 0 
" style="fill:none;stroke:#424242;stroke-linecap:round;stroke-width:4.05;"/>
   </g>
   <g id="line2d_17">
    <path clip-path="url(#pe2f057c26e)" d="M 0 0 
" style="fill:none;stroke:#424242;stroke-linecap:round;stroke-width:4.05;"/>
   </g>
   <g id="line2d_18">
    <path clip-path="url(#pe2f057c26e)" d="M 0 0 
" style="fill:none;stroke:#424242;stroke-linecap:round;stroke-width:4.05;"/>
   </g>
   <g id="line2d_19">
    <path clip-path="url(#pe2f057c26e)" d="M 0 0 
" style="fill:none;stroke:#424242;stroke-linecap:round;stroke-width:4.05;"/>
   </g>
   <g id="line2d_20">
    <path clip-path="url(#pe2f057c26e)" d="M 0 0 
" style="fill:none;stroke:#424242;stroke-linecap:round;stroke-width:4.05;"/>
   </g>
   <g id="line2d_21">
    <path clip-path="url(#pe2f057c26e)" d="M 0 0 
" style="fill:none;stroke:#424242;stroke-linecap:round;stroke-width:4.05;"/>
   </g>
   <g id="line2d_22">
    <path clip-path="url(#pe2f057c26e)" d="M 0 0 
" style="fill:none;stroke:#424242;stroke-linecap:round;stroke-width:4.05;"/>
   </g>
   <g id="line2d_23">
    <path clip-path="url(#pe2f057c26e)" d="M 0 0 
" style="fill:none;stroke:#424242;stroke-linecap:round;stroke-width:4.05;"/>
   </g>
   <g id="line2d_24">
    <path clip-path="url(#pe2f057c26e)" d="M 0 0 
" style="fill:none;stroke:#424242;stroke-linecap:round;stroke-width:4.05;"/>
   </g>
   <g id="line2d_25">
    <path clip-path="url(#pe2f057c26e)" d="M 0 0 
" style="fill:none;stroke:#424242;stroke-linecap:round;stroke-width:4.05;"/>
   </g>
   <g id="line2d_26">
    <path clip-path="url(#pe2f057c26e)" d="M 0 0 
" style="fill:none;stroke:#424242;stroke-linecap:round;stroke-width:4.05;"/>
   </g>
   <g id="line2d_27">
    <path clip-path="url(#pe2f057c26e)" d="M 0 0 
" style="fill:none;stroke:#424242;stroke-linecap:round;stroke-width:4.05;"/>
   </g>
   <g id="line2d_28">
    <path clip-path="url(#pe2f057c26e)" d="M 0 0 
" style="fill:none;stroke:#424242;stroke-linecap:round;stroke-width:4.05;"/>
   </g>
   <g id="line2d_29">
    <path clip-path="url(#pe2f057c26e)" d="M 0 0 
" style="fill:none;stroke:#424242;stroke-linecap:round;stroke-width:4.05;"/>
   </g>
   <g id="line2d_30">
    <path clip-path="url(#pe2f057c26e)" d="M 0 0 
" style="fill:none;stroke:#424242;stroke-linecap:round;stroke-width:4.05;"/>
   </g>
   <g id="line2d_31">
    <path clip-path="url(#pe2f057c26e)" d="M 0 0 
" style="fill:none;stroke:#424242;stroke-linecap:round;stroke-width:4.05;"/>
   </g>
   <g id="line2d_32">
    <path clip-path="url(#pe2f057c26e)" d="M 0 0 
" style="fill:none;stroke:#424242;stroke-linecap:round;stroke-width:4.05;"/>
   </g>
   <g id="line2d_33">
    <path clip-path="url(#pe2f057c26e)" d="M 0 0 
" style="fill:none;stroke:#424242;stroke-linecap:round;stroke-width:4.05;"/>
   </g>
   <g id="line2d_34">
    <path clip-path="url(#pe2f057c26e)" d="M 0 0 
" style="fill:none;stroke:#424242;stroke-linecap:round;stroke-width:4.05;"/>
   </g>
   <g id="line2d_35">
    <path clip-path="url(#pe2f057c26e)" d="M 0 0 
" style="fill:none;stroke:#424242;stroke-linecap:round;stroke-width:4.05;"/>
   </g>
   <g id="line2d_36">
    <path clip-path="url(#pe2f057c26e)" d="M 0 0 
" style="fill:none;stroke:#424242;stroke-linecap:round;stroke-width:4.05;"/>
   </g>
   <g id="line2d_37">
    <path clip-path="url(#pe2f057c26e)" d="M 0 0 
" style="fill:none;stroke:#424242;stroke-linecap:round;stroke-width:4.05;"/>
   </g>
   <g id="line2d_38">
    <path clip-path="url(#pe2f057c26e)" d="M 0 0 
" style="fill:none;stroke:#424242;stroke-linecap:round;stroke-width:4.05;"/>
   </g>
   <g id="line2d_39">
    <path clip-path="url(#pe2f057c26e)" d="M 0 0 
" style="fill:none;stroke:#424242;stroke-linecap:round;stroke-width:4.05;"/>
   </g>
   <g id="line2d_40">
    <path clip-path="url(#pe2f057c26e)" d="M 0 0 
" style="fill:none;stroke:#424242;stroke-linecap:round;stroke-width:4.05;"/>
   </g>
   <g id="line2d_41">
    <path clip-path="url(#pe2f057c26e)" d="M 0 0 
" style="fill:none;stroke:#424242;stroke-linecap:round;stroke-width:4.05;"/>
   </g>
   <g id="line2d_42">
    <path clip-path="url(#pe2f057c26e)" d="M 0 0 
" style="fill:none;stroke:#424242;stroke-linecap:round;stroke-width:4.05;"/>
   </g>
   <g id="line2d_43">
    <path clip-path="url(#pe2f057c26e)" d="M 0 0 
" style="fill:none;stroke:#424242;stroke-linecap:round;stroke-width:4.05;"/>
   </g>
   <g id="line2d_44">
    <path clip-path="url(#pe2f057c26e)" d="M 0 0 
" style="fill:none;stroke:#424242;stroke-linecap:round;stroke-width:4.05;"/>
   </g>
   <g id="line2d_45">
    <path clip-path="url(#pe2f057c26e)" d="M 0 0 
" style="fill:none;stroke:#424242;stroke-linecap:round;stroke-width:4.05;"/>
   </g>
   <g id="line2d_46">
    <path clip-path="url(#pe2f057c26e)" d="M 0 0 
" style="fill:none;stroke:#424242;stroke-linecap:round;stroke-width:4.05;"/>
   </g>
   <g id="line2d_47">
    <path clip-path="url(#pe2f057c26e)" d="M 0 0 
" style="fill:none;stroke:#424242;stroke-linecap:round;stroke-width:4.05;"/>
   </g>
   <g id="line2d_48">
    <path clip-path="url(#pe2f057c26e)" d="M 0 0 
" style="fill:none;stroke:#424242;stroke-linecap:round;stroke-width:4.05;"/>
   </g>
   <g id="line2d_49">
    <path clip-path="url(#pe2f057c26e)" d="M 0 0 
" style="fill:none;stroke:#424242;stroke-linecap:round;stroke-width:4.05;"/>
   </g>
   <g id="line2d_50">
    <path clip-path="url(#pe2f057c26e)" d="M 0 0 
" style="fill:none;stroke:#424242;stroke-linecap:round;stroke-width:4.05;"/>
   </g>
   <g id="line2d_51">
    <path clip-path="url(#pe2f057c26e)" d="M 0 0 
" style="fill:none;stroke:#424242;stroke-linecap:round;stroke-width:4.05;"/>
   </g>
   <g id="line2d_52">
    <path clip-path="url(#pe2f057c26e)" d="M 0 0 
" style="fill:none;stroke:#424242;stroke-linecap:round;stroke-width:4.05;"/>
   </g>
   <g id="line2d_53">
    <path clip-path="url(#pe2f057c26e)" d="M 0 0 
" style="fill:none;stroke:#424242;stroke-linecap:round;stroke-width:4.05;"/>
   </g>
   <g id="line2d_54">
    <path clip-path="url(#pe2f057c26e)" d="M 0 0 
" style="fill:none;stroke:#424242;stroke-linecap:round;stroke-width:4.05;"/>
   </g>
   <g id="line2d_55">
    <path clip-path="url(#pe2f057c26e)" d="M 0 0 
" style="fill:none;stroke:#424242;stroke-linecap:round;stroke-width:4.05;"/>
   </g>
   <g id="line2d_56">
    <path clip-path="url(#pe2f057c26e)" d="M 0 0 
" style="fill:none;stroke:#424242;stroke-linecap:round;stroke-width:4.05;"/>
   </g>
   <g id="line2d_57">
    <path clip-path="url(#pe2f057c26e)" d="M 0 0 
" style="fill:none;stroke:#424242;stroke-linecap:round;stroke-width:4.05;"/>
   </g>
   <g id="line2d_58">
    <path clip-path="url(#pe2f057c26e)" d="M 0 0 
" style="fill:none;stroke:#424242;stroke-linecap:round;stroke-width:4.05;"/>
   </g>
   <g id="line2d_59">
    <path clip-path="url(#pe2f057c26e)" d="M 0 0 
" style="fill:none;stroke:#424242;stroke-linecap:round;stroke-width:4.05;"/>
   </g>
   <g id="line2d_60">
    <path clip-path="url(#pe2f057c26e)" d="M 0 0 
" style="fill:none;stroke:#424242;stroke-linecap:round;stroke-width:4.05;"/>
   </g>
   <g id="line2d_61">
    <path clip-path="url(#pe2f057c26e)" d="M 0 0 
" style="fill:none;stroke:#424242;stroke-linecap:round;stroke-width:4.05;"/>
   </g>
   <g id="line2d_62">
    <path clip-path="url(#pe2f057c26e)" d="M 0 0 
" style="fill:none;stroke:#424242;stroke-linecap:round;stroke-width:4.05;"/>
   </g>
   <g id="line2d_63">
    <path clip-path="url(#pe2f057c26e)" d="M 0 0 
" style="fill:none;stroke:#424242;stroke-linecap:round;stroke-width:4.05;"/>
   </g>
   <g id="line2d_64">
    <path clip-path="url(#pe2f057c26e)" d="M 0 0 
" style="fill:none;stroke:#424242;stroke-linecap:round;stroke-width:4.05;"/>
   </g>
   <g id="line2d_65">
    <path clip-path="url(#pe2f057c26e)" d="M 0 0 
" style="fill:none;stroke:#424242;stroke-linecap:round;stroke-width:4.05;"/>
   </g>
   <g id="line2d_66">
    <path clip-path="url(#pe2f057c26e)" d="M 0 0 
" style="fill:none;stroke:#424242;stroke-linecap:round;stroke-width:4.05;"/>
   </g>
   <g id="line2d_67">
    <path clip-path="url(#pe2f057c26e)" d="M 0 0 
" style="fill:none;stroke:#424242;stroke-linecap:round;stroke-width:4.05;"/>
   </g>
   <g id="line2d_68">
    <path clip-path="url(#pe2f057c26e)" d="M 0 0 
" style="fill:none;stroke:#424242;stroke-linecap:round;stroke-width:4.05;"/>
   </g>
   <g id="line2d_69">
    <path clip-path="url(#pe2f057c26e)" d="M 0 0 
" style="fill:none;stroke:#424242;stroke-linecap:round;stroke-width:4.05;"/>
   </g>
   <g id="line2d_70">
    <path clip-path="url(#pe2f057c26e)" d="M 0 0 
" style="fill:none;stroke:#424242;stroke-linecap:round;stroke-width:4.05;"/>
   </g>
   <g id="line2d_71">
    <path clip-path="url(#pe2f057c26e)" d="M 0 0 
" style="fill:none;stroke:#424242;stroke-linecap:round;stroke-width:4.05;"/>
   </g>
   <g id="line2d_72">
    <path clip-path="url(#pe2f057c26e)" d="M 0 0 
" style="fill:none;stroke:#424242;stroke-linecap:round;stroke-width:4.05;"/>
   </g>
   <g id="line2d_73">
    <path clip-path="url(#pe2f057c26e)" d="M 0 0 
" style="fill:none;stroke:#424242;stroke-linecap:round;stroke-width:4.05;"/>
   </g>
   <g id="line2d_74">
    <path clip-path="url(#pe2f057c26e)" d="M 0 0 
" style="fill:none;stroke:#424242;stroke-linecap:round;stroke-width:4.05;"/>
   </g>
   <g id="line2d_75">
    <path clip-path="url(#pe2f057c26e)" d="M 0 0 
" style="fill:none;stroke:#424242;stroke-linecap:round;stroke-width:4.05;"/>
   </g>
   <g id="line2d_76">
    <path clip-path="url(#pe2f057c26e)" d="M 0 0 
" style="fill:none;stroke:#424242;stroke-linecap:round;stroke-width:4.05;"/>
   </g>
   <g id="line2d_77">
    <path clip-path="url(#pe2f057c26e)" d="M 0 0 
" style="fill:none;stroke:#424242;stroke-linecap:round;stroke-width:4.05;"/>
   </g>
   <g id="line2d_78">
    <path clip-path="url(#pe2f057c26e)" d="M 0 0 
" style="fill:none;stroke:#424242;stroke-linecap:round;stroke-width:4.05;"/>
   </g>
   <g id="line2d_79">
    <path clip-path="url(#pe2f057c26e)" d="M 0 0 
" style="fill:none;stroke:#424242;stroke-linecap:round;stroke-width:4.05;"/>
   </g>
   <g id="line2d_80">
    <path clip-path="url(#pe2f057c26e)" d="M 0 0 
" style="fill:none;stroke:#424242;stroke-linecap:round;stroke-width:4.05;"/>
   </g>
   <g id="line2d_81">
    <path clip-path="url(#pe2f057c26e)" d="M 0 0 
" style="fill:none;stroke:#424242;stroke-linecap:round;stroke-width:4.05;"/>
   </g>
   <g id="line2d_82">
    <path clip-path="url(#pe2f057c26e)" d="M 0 0 
" style="fill:none;stroke:#424242;stroke-linecap:round;stroke-width:4.05;"/>
   </g>
   <g id="line2d_83">
    <path clip-path="url(#pe2f057c26e)" d="M 0 0 
" style="fill:none;stroke:#424242;stroke-linecap:round;stroke-width:4.05;"/>
   </g>
   <g id="line2d_84">
    <path clip-path="url(#pe2f057c26e)" d="M 0 0 
" style="fill:none;stroke:#424242;stroke-linecap:round;stroke-width:4.05;"/>
   </g>
   <g id="line2d_85">
    <path clip-path="url(#pe2f057c26e)" d="M 0 0 
" style="fill:none;stroke:#424242;stroke-linecap:round;stroke-width:4.05;"/>
   </g>
   <g id="line2d_86">
    <path clip-path="url(#pe2f057c26e)" d="M 0 0 
" style="fill:none;stroke:#424242;stroke-linecap:round;stroke-width:4.05;"/>
   </g>
   <g id="line2d_87">
    <path clip-path="url(#pe2f057c26e)" d="M 0 0 
" style="fill:none;stroke:#424242;stroke-linecap:round;stroke-width:4.05;"/>
   </g>
   <g id="line2d_88">
    <path clip-path="url(#pe2f057c26e)" d="M 0 0 
" style="fill:none;stroke:#424242;stroke-linecap:round;stroke-width:4.05;"/>
   </g>
   <g id="line2d_89">
    <path clip-path="url(#pe2f057c26e)" d="M 0 0 
" style="fill:none;stroke:#424242;stroke-linecap:round;stroke-width:4.05;"/>
   </g>
   <g id="line2d_90">
    <path clip-path="url(#pe2f057c26e)" d="M 0 0 
" style="fill:none;stroke:#424242;stroke-linecap:round;stroke-width:4.05;"/>
   </g>
   <g id="line2d_91">
    <path clip-path="url(#pe2f057c26e)" d="M 0 0 
" style="fill:none;stroke:#424242;stroke-linecap:round;stroke-width:4.05;"/>
   </g>
   <g id="line2d_92">
    <path clip-path="url(#pe2f057c26e)" d="M 0 0 
" style="fill:none;stroke:#424242;stroke-linecap:round;stroke-width:4.05;"/>
   </g>
   <g id="line2d_93">
    <path clip-path="url(#pe2f057c26e)" d="M 0 0 
" style="fill:none;stroke:#424242;stroke-linecap:round;stroke-width:4.05;"/>
   </g>
   <g id="line2d_94">
    <path clip-path="url(#pe2f057c26e)" d="M 0 0 
" style="fill:none;stroke:#424242;stroke-linecap:round;stroke-width:4.05;"/>
   </g>
   <g id="line2d_95">
    <path clip-path="url(#pe2f057c26e)" d="M 0 0 
" style="fill:none;stroke:#424242;stroke-linecap:round;stroke-width:4.05;"/>
   </g>
   <g id="line2d_96">
    <path clip-path="url(#pe2f057c26e)" d="M 0 0 
" style="fill:none;stroke:#424242;stroke-linecap:round;stroke-width:4.05;"/>
   </g>
   <g id="line2d_97">
    <path clip-path="url(#pe2f057c26e)" d="M 0 0 
" style="fill:none;stroke:#424242;stroke-linecap:round;stroke-width:4.05;"/>
   </g>
   <g id="line2d_98">
    <path clip-path="url(#pe2f057c26e)" d="M 0 0 
" style="fill:none;stroke:#424242;stroke-linecap:round;stroke-width:4.05;"/>
   </g>
   <g id="line2d_99">
    <path clip-path="url(#pe2f057c26e)" d="M 0 0 
" style="fill:none;stroke:#424242;stroke-linecap:round;stroke-width:4.05;"/>
   </g>
   <g id="line2d_100">
    <path clip-path="url(#pe2f057c26e)" d="M 0 0 
" style="fill:none;stroke:#424242;stroke-linecap:round;stroke-width:4.05;"/>
   </g>
   <g id="line2d_101">
    <path clip-path="url(#pe2f057c26e)" d="M 0 0 
" style="fill:none;stroke:#424242;stroke-linecap:round;stroke-width:4.05;"/>
   </g>
   <g id="line2d_102">
    <path clip-path="url(#pe2f057c26e)" d="M 0 0 
" style="fill:none;stroke:#424242;stroke-linecap:round;stroke-width:4.05;"/>
   </g>
   <g id="line2d_103">
    <path clip-path="url(#pe2f057c26e)" d="M 0 0 
" style="fill:none;stroke:#424242;stroke-linecap:round;stroke-width:4.05;"/>
   </g>
   <g id="line2d_104">
    <path clip-path="url(#pe2f057c26e)" d="M 0 0 
" style="fill:none;stroke:#424242;stroke-linecap:round;stroke-width:4.05;"/>
   </g>
   <g id="line2d_105">
    <path clip-path="url(#pe2f057c26e)" d="M 0 0 
" style="fill:none;stroke:#424242;stroke-linecap:round;stroke-width:4.05;"/>
   </g>
   <g id="line2d_106">
    <path clip-path="url(#pe2f057c26e)" d="M 0 0 
" style="fill:none;stroke:#424242;stroke-linecap:round;stroke-width:4.05;"/>
   </g>
   <g id="line2d_107">
    <path clip-path="url(#pe2f057c26e)" d="M 0 0 
" style="fill:none;stroke:#424242;stroke-linecap:round;stroke-width:4.05;"/>
   </g>
   <g id="line2d_108">
    <path clip-path="url(#pe2f057c26e)" d="M 0 0 
" style="fill:none;stroke:#424242;stroke-linecap:round;stroke-width:4.05;"/>
   </g>
   <g id="line2d_109">
    <path clip-path="url(#pe2f057c26e)" d="M 0 0 
" style="fill:none;stroke:#424242;stroke-linecap:round;stroke-width:4.05;"/>
   </g>
   <g id="line2d_110">
    <path clip-path="url(#pe2f057c26e)" d="M 0 0 
" style="fill:none;stroke:#424242;stroke-linecap:round;stroke-width:4.05;"/>
   </g>
   <g id="line2d_111">
    <path clip-path="url(#pe2f057c26e)" d="M 0 0 
" style="fill:none;stroke:#424242;stroke-linecap:round;stroke-width:4.05;"/>
   </g>
   <g id="line2d_112">
    <path clip-path="url(#pe2f057c26e)" d="M 0 0 
" style="fill:none;stroke:#424242;stroke-linecap:round;stroke-width:4.05;"/>
   </g>
   <g id="line2d_113">
    <path clip-path="url(#pe2f057c26e)" d="M 0 0 
" style="fill:none;stroke:#424242;stroke-linecap:round;stroke-width:4.05;"/>
   </g>
   <g id="patch_108">
    <path d="M 180 640.8 
L 180 86.4 
" style="fill:none;stroke:#ffffff;stroke-linecap:square;stroke-linejoin:miter;stroke-width:1.875;"/>
   </g>
   <g id="patch_109">
    <path d="M 1296 640.8 
L 1296 86.4 
" style="fill:none;stroke:#ffffff;stroke-linecap:square;stroke-linejoin:miter;stroke-width:1.875;"/>
   </g>
   <g id="patch_110">
    <path d="M 180 640.8 
L 1296 640.8 
" style="fill:none;stroke:#ffffff;stroke-linecap:square;stroke-linejoin:miter;stroke-width:1.875;"/>
   </g>
   <g id="patch_111">
    <path d="M 180 86.4 
L 1296 86.4 
" style="fill:none;stroke:#ffffff;stroke-linecap:square;stroke-linejoin:miter;stroke-width:1.875;"/>
   </g>
   <g id="text_26">
    <!-- Hash function throughput on a 32-bit ARM Raspberry Pi 2B, 4 cores, non-SIMD implementations -->
    <defs>
     <path d="M 9.8125 72.90625 
L 19.671875 72.90625 
L 19.671875 43.015625 
L 55.515625 43.015625 
L 55.515625 72.90625 
L 65.375 72.90625 
L 65.375 0 
L 55.515625 0 
L 55.515625 34.71875 
L 19.671875 34.71875 
L 19.671875 0 
L 9.8125 0 
z
" id="DejaVuSans-72"/>
     <path d="M 34.28125 27.484375 
Q 23.390625 27.484375 19.1875 25 
Q 14.984375 22.515625 14.984375 16.5 
Q 14.984375 11.71875 18.140625 8.90625 
Q 21.296875 6.109375 26.703125 6.109375 
Q 34.1875 6.109375 38.703125 11.40625 
Q 43.21875 16.703125 43.21875 25.484375 
L 43.21875 27.484375 
z
M 52.203125 31.203125 
L 52.203125 0 
L 43.21875 0 
L 43.21875 8.296875 
Q 40.140625 3.328125 35.546875 0.953125 
Q 30.953125 -1.421875 24.3125 -1.421875 
Q 15.921875 -1.421875 10.953125 3.296875 
Q 6 8.015625 6 15.921875 
Q 6 25.140625 12.171875 29.828125 
Q 18.359375 34.515625 30.609375 34.515625 
L 43.21875 34.515625 
L 43.21875 35.40625 
Q 43.21875 41.609375 39.140625 45 
Q 35.0625 48.390625 27.6875 48.390625 
Q 23 48.390625 18.546875 47.265625 
Q 14.109375 46.140625 10.015625 43.890625 
L 10.015625 52.203125 
Q 14.9375 54.109375 19.578125 55.046875 
Q 24.21875 56 28.609375 56 
Q 40.484375 56 46.34375 49.84375 
Q 52.203125 43.703125 52.203125 31.203125 
z
" id="DejaVuSans-97"/>
     <path d="M 37.109375 75.984375 
L 37.109375 68.5 
L 28.515625 68.5 
Q 23.6875 68.5 21.796875 66.546875 
Q 19.921875 64.59375 19.921875 59.515625 
L 19.921875 54.6875 
L 34.71875 54.6875 
L 34.71875 47.703125 
L 19.921875 47.703125 
L 19.921875 0 
L 10.890625 0 
L 10.890625 47.703125 
L 2.296875 47.703125 
L 2.296875 54.6875 
L 10.890625 54.6875 
L 10.890625 58.5 
Q 10.890625 67.625 15.140625 71.796875 
Q 19.390625 75.984375 28.609375 75.984375 
z
" id="DejaVuSans-102"/>
     <path d="M 48.78125 52.59375 
L 48.78125 44.1875 
Q 44.96875 46.296875 41.140625 47.34375 
Q 37.3125 48.390625 33.40625 48.390625 
Q 24.65625 48.390625 19.8125 42.84375 
Q 14.984375 37.3125 14.984375 27.296875 
Q 14.984375 17.28125 19.8125 11.734375 
Q 24.65625 6.203125 33.40625 6.203125 
Q 37.3125 6.203125 41.140625 7.25 
Q 44.96875 8.296875 48.78125 10.40625 
L 48.78125 2.09375 
Q 45.015625 0.34375 40.984375 -0.53125 
Q 36.96875 -1.421875 32.421875 -1.421875 
Q 20.0625 -1.421875 12.78125 6.34375 
Q 5.515625 14.109375 5.515625 27.296875 
Q 5.515625 40.671875 12.859375 48.328125 
Q 20.21875 56 33.015625 56 
Q 37.15625 56 41.109375 55.140625 
Q 45.0625 54.296875 48.78125 52.59375 
z
" id="DejaVuSans-99"/>
     <path d="M 4.890625 31.390625 
L 31.203125 31.390625 
L 31.203125 23.390625 
L 4.890625 23.390625 
z
" id="DejaVuSans-45"/>
     <path d="M 34.1875 63.1875 
L 20.796875 26.90625 
L 47.609375 26.90625 
z
M 28.609375 72.90625 
L 39.796875 72.90625 
L 67.578125 0 
L 57.328125 0 
L 50.6875 18.703125 
L 17.828125 18.703125 
L 11.1875 0 
L 0.78125 0 
z
" id="DejaVuSans-65"/>
     <path d="M 44.390625 34.1875 
Q 47.5625 33.109375 50.5625 29.59375 
Q 53.5625 26.078125 56.59375 19.921875 
L 66.609375 0 
L 56 0 
L 46.6875 18.703125 
Q 43.0625 26.03125 39.671875 28.421875 
Q 36.28125 30.8125 30.421875 30.8125 
L 19.671875 30.8125 
L 19.671875 0 
L 9.8125 0 
L 9.8125 72.90625 
L 32.078125 72.90625 
Q 44.578125 72.90625 50.734375 67.671875 
Q 56.890625 62.453125 56.890625 51.90625 
Q 56.890625 45.015625 53.6875 40.46875 
Q 50.484375 35.9375 44.390625 34.1875 
z
M 19.671875 64.796875 
L 19.671875 38.921875 
L 32.078125 38.921875 
Q 39.203125 38.921875 42.84375 42.21875 
Q 46.484375 45.515625 46.484375 51.90625 
Q 46.484375 58.296875 42.84375 61.546875 
Q 39.203125 64.796875 32.078125 64.796875 
z
" id="DejaVuSans-82"/>
     <path d="M 19.671875 64.796875 
L 19.671875 37.40625 
L 32.078125 37.40625 
Q 38.96875 37.40625 42.71875 40.96875 
Q 46.484375 44.53125 46.484375 51.125 
Q 46.484375 57.671875 42.71875 61.234375 
Q 38.96875 64.796875 32.078125 64.796875 
z
M 9.8125 72.90625 
L 32.078125 72.90625 
Q 44.34375 72.90625 50.609375 67.359375 
Q 56.890625 61.8125 56.890625 51.125 
Q 56.890625 40.328125 50.609375 34.8125 
Q 44.34375 29.296875 32.078125 29.296875 
L 19.671875 29.296875 
L 19.671875 0 
L 9.8125 0 
z
" id="DejaVuSans-80"/>
     <path d="M 11.71875 12.40625 
L 22.015625 12.40625 
L 22.015625 4 
L 14.015625 -11.625 
L 7.71875 -11.625 
L 11.71875 4 
z
" id="DejaVuSans-44"/>
     <path d="M 53.515625 70.515625 
L 53.515625 60.890625 
Q 47.90625 63.578125 42.921875 64.890625 
Q 37.9375 66.21875 33.296875 66.21875 
Q 25.25 66.21875 20.875 63.09375 
Q 16.5 59.96875 16.5 54.203125 
Q 16.5 49.359375 19.40625 46.890625 
Q 22.3125 44.4375 30.421875 42.921875 
L 36.375 41.703125 
Q 47.40625 39.59375 52.65625 34.296875 
Q 57.90625 29 57.90625 20.125 
Q 57.90625 9.515625 50.796875 4.046875 
Q 43.703125 -1.421875 29.984375 -1.421875 
Q 24.8125 -1.421875 18.96875 -0.25 
Q 13.140625 0.921875 6.890625 3.21875 
L 6.890625 13.375 
Q 12.890625 10.015625 18.65625 8.296875 
Q 24.421875 6.59375 29.984375 6.59375 
Q 38.421875 6.59375 43.015625 9.90625 
Q 47.609375 13.234375 47.609375 19.390625 
Q 47.609375 24.75 44.3125 27.78125 
Q 41.015625 30.8125 33.5 32.328125 
L 27.484375 33.5 
Q 16.453125 35.6875 11.515625 40.375 
Q 6.59375 45.0625 6.59375 53.421875 
Q 6.59375 63.09375 13.40625 68.65625 
Q 20.21875 74.21875 32.171875 74.21875 
Q 37.3125 74.21875 42.625 73.28125 
Q 47.953125 72.359375 53.515625 70.515625 
z
" id="DejaVuSans-83"/>
     <path d="M 9.8125 72.90625 
L 19.671875 72.90625 
L 19.671875 0 
L 9.8125 0 
z
" id="DejaVuSans-73"/>
     <path d="M 19.671875 64.796875 
L 19.671875 8.109375 
L 31.59375 8.109375 
Q 46.6875 8.109375 53.6875 14.9375 
Q 60.6875 21.78125 60.6875 36.53125 
Q 60.6875 51.171875 53.6875 57.984375 
Q 46.6875 64.796875 31.59375 64.796875 
z
M 9.8125 72.90625 
L 30.078125 72.90625 
Q 51.265625 72.90625 61.171875 64.09375 
Q 71.09375 55.28125 71.09375 36.53125 
Q 71.09375 17.671875 61.125 8.828125 
Q 51.171875 0 30.078125 0 
L 9.8125 0 
z
" id="DejaVuSans-68"/>
     <path d="M 52 44.1875 
Q 55.375 50.25 60.0625 53.125 
Q 64.75 56 71.09375 56 
Q 79.640625 56 84.28125 50.015625 
Q 88.921875 44.046875 88.921875 33.015625 
L 88.921875 0 
L 79.890625 0 
L 79.890625 32.71875 
Q 79.890625 40.578125 77.09375 44.375 
Q 74.3125 48.1875 68.609375 48.1875 
Q 61.625 48.1875 57.5625 43.546875 
Q 53.515625 38.921875 53.515625 30.90625 
L 53.515625 0 
L 44.484375 0 
L 44.484375 32.71875 
Q 44.484375 40.625 41.703125 44.40625 
Q 38.921875 48.1875 33.109375 48.1875 
Q 26.21875 48.1875 22.15625 43.53125 
Q 18.109375 38.875 18.109375 30.90625 
L 18.109375 0 
L 9.078125 0 
L 9.078125 54.6875 
L 18.109375 54.6875 
L 18.109375 46.1875 
Q 21.1875 51.21875 25.484375 53.609375 
Q 29.78125 56 35.6875 56 
Q 41.65625 56 45.828125 52.96875 
Q 50 49.953125 52 44.1875 
z
" id="DejaVuSans-109"/>
     <path d="M 9.421875 75.984375 
L 18.40625 75.984375 
L 18.40625 0 
L 9.421875 0 
z
" id="DejaVuSans-108"/>
    </defs>
    <g style="fill:#262626;" transform="translate(306.511875 80.4)scale(0.18 -0.18)">
     <use xlink:href="#DejaVuSans-72"/>
     <use x="75.195312" xlink:href="#DejaVuSans-97"/>
     <use x="136.474609" xlink:href="#DejaVuSans-115"/>
     <use x="188.574219" xlink:href="#DejaVuSans-104"/>
     <use x="251.953125" xlink:href="#DejaVuSans-32"/>
     <use x="283.740234" xlink:href="#DejaVuSans-102"/>
     <use x="318.945312" xlink:href="#DejaVuSans-117"/>
     <use x="382.324219" xlink:href="#DejaVuSans-110"/>
     <use x="445.703125" xlink:href="#DejaVuSans-99"/>
     <use x="500.683594" xlink:href="#DejaVuSans-116"/>
     <use x="539.892578" xlink:href="#DejaVuSans-105"/>
     <use x="567.675781" xlink:href="#DejaVuSans-111"/>
     <use x="628.857422" xlink:href="#DejaVuSans-110"/>
     <use x="692.236328" xlink:href="#DejaVuSans-32"/>
     <use x="724.023438" xlink:href="#DejaVuSans-116"/>
     <use x="763.232422" xlink:href="#DejaVuSans-104"/>
     <use x="826.611328" xlink:href="#DejaVuSans-114"/>
     <use x="867.693359" xlink:href="#DejaVuSans-111"/>
     <use x="928.875" xlink:href="#DejaVuSans-117"/>
     <use x="992.253906" xlink:href="#DejaVuSans-103"/>
     <use x="1055.730469" xlink:href="#DejaVuSans-104"/>
     <use x="1119.109375" xlink:href="#DejaVuSans-112"/>
     <use x="1182.585938" xlink:href="#DejaVuSans-117"/>
     <use x="1245.964844" xlink:href="#DejaVuSans-116"/>
     <use x="1285.173828" xlink:href="#DejaVuSans-32"/>
     <use x="1316.960938" xlink:href="#DejaVuSans-111"/>
     <use x="1378.142578" xlink:href="#DejaVuSans-110"/>
     <use x="1441.521484" xlink:href="#DejaVuSans-32"/>
     <use x="1473.308594" xlink:href="#DejaVuSans-97"/>
     <use x="1534.587891" xlink:href="#DejaVuSans-32"/>
     <use x="1566.375" xlink:href="#DejaVuSans-51"/>
     <use x="1629.998047" xlink:href="#DejaVuSans-50"/>
     <use x="1693.621094" xlink:href="#DejaVuSans-45"/>
     <use x="1729.705078" xlink:href="#DejaVuSans-98"/>
     <use x="1793.181641" xlink:href="#DejaVuSans-105"/>
     <use x="1820.964844" xlink:href="#DejaVuSans-116"/>
     <use x="1860.173828" xlink:href="#DejaVuSans-32"/>
     <use x="1891.960938" xlink:href="#DejaVuSans-65"/>
     <use x="1960.369141" xlink:href="#DejaVuSans-82"/>
     <use x="2029.851562" xlink:href="#DejaVuSans-77"/>
     <use x="2116.130859" xlink:href="#DejaVuSans-32"/>
     <use x="2147.917969" xlink:href="#DejaVuSans-82"/>
     <use x="2217.369141" xlink:href="#DejaVuSans-97"/>
     <use x="2278.648438" xlink:href="#DejaVuSans-115"/>
     <use x="2330.748047" xlink:href="#DejaVuSans-112"/>
     <use x="2394.224609" xlink:href="#DejaVuSans-98"/>
     <use x="2457.701172" xlink:href="#DejaVuSans-101"/>
     <use x="2519.224609" xlink:href="#DejaVuSans-114"/>
     <use x="2560.322266" xlink:href="#DejaVuSans-114"/>
     <use x="2601.435547" xlink:href="#DejaVuSans-121"/>
     <use x="2660.615234" xlink:href="#DejaVuSans-32"/>
     <use x="2692.402344" xlink:href="#DejaVuSans-80"/>
     <use x="2752.673828" xlink:href="#DejaVuSans-105"/>
     <use x="2780.457031" xlink:href="#DejaVuSans-32"/>
     <use x="2812.244141" xlink:href="#DejaVuSans-50"/>
     <use x="2875.867188" xlink:href="#DejaVuSans-66"/>
     <use x="2944.470703" xlink:href="#DejaVuSans-44"/>
     <use x="2976.257812" xlink:href="#DejaVuSans-32"/>
     <use x="3008.044922" xlink:href="#DejaVuSans-52"/>
     <use x="3071.667969" xlink:href="#DejaVuSans-32"/>
     <use x="3103.455078" xlink:href="#DejaVuSans-99"/>
     <use x="3158.435547" xlink:href="#DejaVuSans-111"/>
     <use x="3219.617188" xlink:href="#DejaVuSans-114"/>
     <use x="3260.699219" xlink:href="#DejaVuSans-101"/>
     <use x="3322.222656" xlink:href="#DejaVuSans-115"/>
     <use x="3374.322266" xlink:href="#DejaVuSans-44"/>
     <use x="3406.109375" xlink:href="#DejaVuSans-32"/>
     <use x="3437.896484" xlink:href="#DejaVuSans-110"/>
     <use x="3501.275391" xlink:href="#DejaVuSans-111"/>
     <use x="3562.457031" xlink:href="#DejaVuSans-110"/>
     <use x="3625.835938" xlink:href="#DejaVuSans-45"/>
     <use x="3661.919922" xlink:href="#DejaVuSans-83"/>
     <use x="3725.396484" xlink:href="#DejaVuSans-73"/>
     <use x="3754.888672" xlink:href="#DejaVuSans-77"/>
     <use x="3841.167969" xlink:href="#DejaVuSans-68"/>
     <use x="3918.169922" xlink:href="#DejaVuSans-32"/>
     <use x="3949.957031" xlink:href="#DejaVuSans-105"/>
     <use x="3977.740234" xlink:href="#DejaVuSans-109"/>
     <use x="4075.152344" xlink:href="#DejaVuSans-112"/>
     <use x="4138.628906" xlink:href="#DejaVuSans-108"/>
     <use x="4166.412109" xlink:href="#DejaVuSans-101"/>
     <use x="4227.935547" xlink:href="#DejaVuSans-109"/>
     <use x="4325.347656" xlink:href="#DejaVuSans-101"/>
     <use x="4386.871094" xlink:href="#DejaVuSans-110"/>
     <use x="4450.25" xlink:href="#DejaVuSans-116"/>
     <use x="4489.458984" xlink:href="#DejaVuSans-97"/>
     <use x="4550.738281" xlink:href="#DejaVuSans-116"/>
     <use x="4589.947266" xlink:href="#DejaVuSans-105"/>
     <use x="4617.730469" xlink:href="#DejaVuSans-111"/>
     <use x="4678.912109" xlink:href="#DejaVuSans-110"/>
     <use x="4742.291016" xlink:href="#DejaVuSans-115"/>
    </g>
   </g>
   <g id="legend_1">
    <g id="patch_112">
     <path d="M 191.55 292.189875 
L 395.422969 292.189875 
Q 398.722969 292.189875 398.722969 288.889875 
L 398.722969 97.95 
Q 398.722969 94.65 395.422969 94.65 
L 191.55 94.65 
Q 188.25 94.65 188.25 97.95 
L 188.25 288.889875 
Q 188.25 292.189875 191.55 292.189875 
z
" style="fill:#eaeaf2;opacity:0.8;stroke:#cccccc;stroke-linejoin:miter;stroke-width:1.5;"/>
    </g>
    <g id="text_27">
     <!-- function -->
     <g style="fill:#262626;" transform="translate(262.23743 112.875609)scale(0.153 -0.153)">
      <use xlink:href="#DejaVuSans-102"/>
      <use x="35.205078" xlink:href="#DejaVuSans-117"/>
      <use x="98.583984" xlink:href="#DejaVuSans-110"/>
      <use x="161.962891" xlink:href="#DejaVuSans-99"/>
      <use x="216.943359" xlink:href="#DejaVuSans-116"/>
      <use x="256.152344" xlink:href="#DejaVuSans-105"/>
      <use x="283.935547" xlink:href="#DejaVuSans-111"/>
      <use x="345.117188" xlink:href="#DejaVuSans-110"/>
     </g>
    </g>
    <g id="patch_113">
     <path d="M 194.85 136.844953 
L 227.85 136.844953 
L 227.85 125.294953 
L 194.85 125.294953 
z
" style="fill:#5875a4;stroke:#ffffff;stroke-linejoin:miter;stroke-width:1.5;"/>
    </g>
    <g id="text_28">
     <!-- Bao -->
     <g style="fill:#262626;" transform="translate(241.05 136.844953)scale(0.165 -0.165)">
      <use xlink:href="#DejaVuSans-66"/>
      <use x="68.603516" xlink:href="#DejaVuSans-97"/>
      <use x="129.882812" xlink:href="#DejaVuSans-111"/>
     </g>
    </g>
    <g id="patch_114">
     <path d="M 194.85 161.063859 
L 227.85 161.063859 
L 227.85 149.513859 
L 194.85 149.513859 
z
" style="fill:#cc8963;stroke:#ffffff;stroke-linejoin:miter;stroke-width:1.5;"/>
    </g>
    <g id="text_29">
     <!-- BLAKE2s -->
     <defs>
      <path d="M 9.8125 72.90625 
L 19.671875 72.90625 
L 19.671875 8.296875 
L 55.171875 8.296875 
L 55.171875 0 
L 9.8125 0 
z
" id="DejaVuSans-76"/>
      <path d="M 9.8125 72.90625 
L 55.90625 72.90625 
L 55.90625 64.59375 
L 19.671875 64.59375 
L 19.671875 43.015625 
L 54.390625 43.015625 
L 54.390625 34.71875 
L 19.671875 34.71875 
L 19.671875 8.296875 
L 56.78125 8.296875 
L 56.78125 0 
L 9.8125 0 
z
" id="DejaVuSans-69"/>
     </defs>
     <g style="fill:#262626;" transform="translate(241.05 161.063859)scale(0.165 -0.165)">
      <use xlink:href="#DejaVuSans-66"/>
      <use x="68.603516" xlink:href="#DejaVuSans-76"/>
      <use x="124.347656" xlink:href="#DejaVuSans-65"/>
      <use x="192.755859" xlink:href="#DejaVuSans-75"/>
      <use x="258.332031" xlink:href="#DejaVuSans-69"/>
      <use x="321.515625" xlink:href="#DejaVuSans-50"/>
      <use x="385.138672" xlink:href="#DejaVuSans-115"/>
     </g>
    </g>
    <g id="patch_115">
     <path d="M 194.85 185.282766 
L 227.85 185.282766 
L 227.85 173.732766 
L 194.85 173.732766 
z
" style="fill:#5f9e6e;stroke:#ffffff;stroke-linejoin:miter;stroke-width:1.5;"/>
    </g>
    <g id="text_30">
     <!-- BLAKE2b -->
     <g style="fill:#262626;" transform="translate(241.05 185.282766)scale(0.165 -0.165)">
      <use xlink:href="#DejaVuSans-66"/>
      <use x="68.603516" xlink:href="#DejaVuSans-76"/>
      <use x="124.347656" xlink:href="#DejaVuSans-65"/>
      <use x="192.755859" xlink:href="#DejaVuSans-75"/>
      <use x="258.332031" xlink:href="#DejaVuSans-69"/>
      <use x="321.515625" xlink:href="#DejaVuSans-50"/>
      <use x="385.138672" xlink:href="#DejaVuSans-98"/>
     </g>
    </g>
    <g id="patch_116">
     <path d="M 194.85 209.501672 
L 227.85 209.501672 
L 227.85 197.951672 
L 194.85 197.951672 
z
" style="fill:#b55d60;stroke:#ffffff;stroke-linejoin:miter;stroke-width:1.5;"/>
    </g>
    <g id="text_31">
     <!-- BLAKE2sp -->
     <g style="fill:#262626;" transform="translate(241.05 209.501672)scale(0.165 -0.165)">
      <use xlink:href="#DejaVuSans-66"/>
      <use x="68.603516" xlink:href="#DejaVuSans-76"/>
      <use x="124.347656" xlink:href="#DejaVuSans-65"/>
      <use x="192.755859" xlink:href="#DejaVuSans-75"/>
      <use x="258.332031" xlink:href="#DejaVuSans-69"/>
      <use x="321.515625" xlink:href="#DejaVuSans-50"/>
      <use x="385.138672" xlink:href="#DejaVuSans-115"/>
      <use x="437.238281" xlink:href="#DejaVuSans-112"/>
     </g>
    </g>
    <g id="patch_117">
     <path d="M 194.85 233.720578 
L 227.85 233.720578 
L 227.85 222.170578 
L 194.85 222.170578 
z
" style="fill:#857aab;stroke:#ffffff;stroke-linejoin:miter;stroke-width:1.5;"/>
    </g>
    <g id="text_32">
     <!-- BLAKE2bp -->
     <g style="fill:#262626;" transform="translate(241.05 233.720578)scale(0.165 -0.165)">
      <use xlink:href="#DejaVuSans-66"/>
      <use x="68.603516" xlink:href="#DejaVuSans-76"/>
      <use x="124.347656" xlink:href="#DejaVuSans-65"/>
      <use x="192.755859" xlink:href="#DejaVuSans-75"/>
      <use x="258.332031" xlink:href="#DejaVuSans-69"/>
      <use x="321.515625" xlink:href="#DejaVuSans-50"/>
      <use x="385.138672" xlink:href="#DejaVuSans-98"/>
      <use x="448.615234" xlink:href="#DejaVuSans-112"/>
     </g>
    </g>
    <g id="patch_118">
     <path d="M 194.85 257.939484 
L 227.85 257.939484 
L 227.85 246.389484 
L 194.85 246.389484 
z
" style="fill:#8d7866;stroke:#ffffff;stroke-linejoin:miter;stroke-width:1.5;"/>
    </g>
    <g id="text_33">
     <!-- OpenSSL SHA-256 -->
     <defs>
      <path d="M 39.40625 66.21875 
Q 28.65625 66.21875 22.328125 58.203125 
Q 16.015625 50.203125 16.015625 36.375 
Q 16.015625 22.609375 22.328125 14.59375 
Q 28.65625 6.59375 39.40625 6.59375 
Q 50.140625 6.59375 56.421875 14.59375 
Q 62.703125 22.609375 62.703125 36.375 
Q 62.703125 50.203125 56.421875 58.203125 
Q 50.140625 66.21875 39.40625 66.21875 
z
M 39.40625 74.21875 
Q 54.734375 74.21875 63.90625 63.9375 
Q 73.09375 53.65625 73.09375 36.375 
Q 73.09375 19.140625 63.90625 8.859375 
Q 54.734375 -1.421875 39.40625 -1.421875 
Q 24.03125 -1.421875 14.8125 8.828125 
Q 5.609375 19.09375 5.609375 36.375 
Q 5.609375 53.65625 14.8125 63.9375 
Q 24.03125 74.21875 39.40625 74.21875 
z
" id="DejaVuSans-79"/>
     </defs>
     <g style="fill:#262626;" transform="translate(241.05 257.939484)scale(0.165 -0.165)">
      <use xlink:href="#DejaVuSans-79"/>
      <use x="78.710938" xlink:href="#DejaVuSans-112"/>
      <use x="142.1875" xlink:href="#DejaVuSans-101"/>
      <use x="203.710938" xlink:href="#DejaVuSans-110"/>
      <use x="267.089844" xlink:href="#DejaVuSans-83"/>
      <use x="330.566406" xlink:href="#DejaVuSans-83"/>
      <use x="394.042969" xlink:href="#DejaVuSans-76"/>
      <use x="449.755859" xlink:href="#DejaVuSans-32"/>
      <use x="481.542969" xlink:href="#DejaVuSans-83"/>
      <use x="545.019531" xlink:href="#DejaVuSans-72"/>
      <use x="620.214844" xlink:href="#DejaVuSans-65"/>
      <use x="688.591797" xlink:href="#DejaVuSans-45"/>
      <use x="724.675781" xlink:href="#DejaVuSans-50"/>
      <use x="788.298828" xlink:href="#DejaVuSans-53"/>
      <use x="851.921875" xlink:href="#DejaVuSans-54"/>
     </g>
    </g>
    <g id="patch_119">
     <path d="M 194.85 282.158391 
L 227.85 282.158391 
L 227.85 270.608391 
L 194.85 270.608391 
z
" style="fill:#d095bf;stroke:#ffffff;stroke-linejoin:miter;stroke-width:1.5;"/>
    </g>
    <g id="text_34">
     <!-- OpenSSL SHA-512 -->
     <g style="fill:#262626;" transform="translate(241.05 282.158391)scale(0.165 -0.165)">
      <use xlink:href="#DejaVuSans-79"/>
      <use x="78.710938" xlink:href="#DejaVuSans-112"/>
      <use x="142.1875" xlink:href="#DejaVuSans-101"/>
      <use x="203.710938" xlink:href="#DejaVuSans-110"/>
      <use x="267.089844" xlink:href="#DejaVuSans-83"/>
      <use x="330.566406" xlink:href="#DejaVuSans-83"/>
      <use x="394.042969" xlink:href="#DejaVuSans-76"/>
      <use x="449.755859" xlink:href="#DejaVuSans-32"/>
      <use x="481.542969" xlink:href="#DejaVuSans-83"/>
      <use x="545.019531" xlink:href="#DejaVuSans-72"/>
      <use x="620.214844" xlink:href="#DejaVuSans-65"/>
      <use x="688.591797" xlink:href="#DejaVuSans-45"/>
      <use x="724.675781" xlink:href="#DejaVuSans-53"/>
      <use x="788.298828" xlink:href="#DejaVuSans-49"/>
      <use x="851.921875" xlink:href="#DejaVuSans-50"/>
     </g>
    </g>
   </g>
  </g>
 </g>
 <defs>
  <clipPath id="pe2f057c26e">
   <rect height="554.4" width="1116" x="180" y="86.4"/>
  </clipPath>
 </defs>
</svg>
